G04 #@! TF.GenerationSoftware,KiCad,Pcbnew,8.99.0-unknown-5c22162d85~178~ubuntu22.04.1*
G04 #@! TF.CreationDate,2024-07-16T15:39:20+01:00*
G04 #@! TF.ProjectId,Lego9767,4c65676f-3937-4363-972e-6b696361645f,1.0.1*
G04 #@! TF.SameCoordinates,Original*
G04 #@! TF.FileFunction,Legend,Top*
G04 #@! TF.FilePolarity,Positive*
%FSLAX46Y46*%
G04 Gerber Fmt 4.6, Leading zero omitted, Abs format (unit mm)*
G04 Created by KiCad (PCBNEW 8.99.0-unknown-5c22162d85~178~ubuntu22.04.1) date 2024-07-16 15:39:20*
%MOMM*%
%LPD*%
G01*
G04 APERTURE LIST*
%ADD10C,0.300000*%
%ADD11C,0.150000*%
%ADD12C,0.120000*%
%ADD13C,0.127000*%
%ADD14C,0.200000*%
%ADD15C,0.152400*%
%ADD16C,0.100000*%
%ADD17C,0.000000*%
G04 APERTURE END LIST*
D10*
X89268796Y-68800828D02*
X88554510Y-68800828D01*
X88554510Y-68800828D02*
X88554510Y-67300828D01*
X90340225Y-68729400D02*
X90197368Y-68800828D01*
X90197368Y-68800828D02*
X89911654Y-68800828D01*
X89911654Y-68800828D02*
X89768796Y-68729400D01*
X89768796Y-68729400D02*
X89697368Y-68586542D01*
X89697368Y-68586542D02*
X89697368Y-68015114D01*
X89697368Y-68015114D02*
X89768796Y-67872257D01*
X89768796Y-67872257D02*
X89911654Y-67800828D01*
X89911654Y-67800828D02*
X90197368Y-67800828D01*
X90197368Y-67800828D02*
X90340225Y-67872257D01*
X90340225Y-67872257D02*
X90411654Y-68015114D01*
X90411654Y-68015114D02*
X90411654Y-68157971D01*
X90411654Y-68157971D02*
X89697368Y-68300828D01*
X91697368Y-67800828D02*
X91697368Y-69015114D01*
X91697368Y-69015114D02*
X91625939Y-69157971D01*
X91625939Y-69157971D02*
X91554510Y-69229400D01*
X91554510Y-69229400D02*
X91411653Y-69300828D01*
X91411653Y-69300828D02*
X91197368Y-69300828D01*
X91197368Y-69300828D02*
X91054510Y-69229400D01*
X91697368Y-68729400D02*
X91554510Y-68800828D01*
X91554510Y-68800828D02*
X91268796Y-68800828D01*
X91268796Y-68800828D02*
X91125939Y-68729400D01*
X91125939Y-68729400D02*
X91054510Y-68657971D01*
X91054510Y-68657971D02*
X90983082Y-68515114D01*
X90983082Y-68515114D02*
X90983082Y-68086542D01*
X90983082Y-68086542D02*
X91054510Y-67943685D01*
X91054510Y-67943685D02*
X91125939Y-67872257D01*
X91125939Y-67872257D02*
X91268796Y-67800828D01*
X91268796Y-67800828D02*
X91554510Y-67800828D01*
X91554510Y-67800828D02*
X91697368Y-67872257D01*
X92625939Y-68800828D02*
X92483082Y-68729400D01*
X92483082Y-68729400D02*
X92411653Y-68657971D01*
X92411653Y-68657971D02*
X92340225Y-68515114D01*
X92340225Y-68515114D02*
X92340225Y-68086542D01*
X92340225Y-68086542D02*
X92411653Y-67943685D01*
X92411653Y-67943685D02*
X92483082Y-67872257D01*
X92483082Y-67872257D02*
X92625939Y-67800828D01*
X92625939Y-67800828D02*
X92840225Y-67800828D01*
X92840225Y-67800828D02*
X92983082Y-67872257D01*
X92983082Y-67872257D02*
X93054511Y-67943685D01*
X93054511Y-67943685D02*
X93125939Y-68086542D01*
X93125939Y-68086542D02*
X93125939Y-68515114D01*
X93125939Y-68515114D02*
X93054511Y-68657971D01*
X93054511Y-68657971D02*
X92983082Y-68729400D01*
X92983082Y-68729400D02*
X92840225Y-68800828D01*
X92840225Y-68800828D02*
X92625939Y-68800828D01*
X94983082Y-68800828D02*
X95268796Y-68800828D01*
X95268796Y-68800828D02*
X95411653Y-68729400D01*
X95411653Y-68729400D02*
X95483082Y-68657971D01*
X95483082Y-68657971D02*
X95625939Y-68443685D01*
X95625939Y-68443685D02*
X95697368Y-68157971D01*
X95697368Y-68157971D02*
X95697368Y-67586542D01*
X95697368Y-67586542D02*
X95625939Y-67443685D01*
X95625939Y-67443685D02*
X95554511Y-67372257D01*
X95554511Y-67372257D02*
X95411653Y-67300828D01*
X95411653Y-67300828D02*
X95125939Y-67300828D01*
X95125939Y-67300828D02*
X94983082Y-67372257D01*
X94983082Y-67372257D02*
X94911653Y-67443685D01*
X94911653Y-67443685D02*
X94840225Y-67586542D01*
X94840225Y-67586542D02*
X94840225Y-67943685D01*
X94840225Y-67943685D02*
X94911653Y-68086542D01*
X94911653Y-68086542D02*
X94983082Y-68157971D01*
X94983082Y-68157971D02*
X95125939Y-68229400D01*
X95125939Y-68229400D02*
X95411653Y-68229400D01*
X95411653Y-68229400D02*
X95554511Y-68157971D01*
X95554511Y-68157971D02*
X95625939Y-68086542D01*
X95625939Y-68086542D02*
X95697368Y-67943685D01*
X96197367Y-67300828D02*
X97197367Y-67300828D01*
X97197367Y-67300828D02*
X96554510Y-68800828D01*
X98411653Y-67300828D02*
X98125938Y-67300828D01*
X98125938Y-67300828D02*
X97983081Y-67372257D01*
X97983081Y-67372257D02*
X97911653Y-67443685D01*
X97911653Y-67443685D02*
X97768795Y-67657971D01*
X97768795Y-67657971D02*
X97697367Y-67943685D01*
X97697367Y-67943685D02*
X97697367Y-68515114D01*
X97697367Y-68515114D02*
X97768795Y-68657971D01*
X97768795Y-68657971D02*
X97840224Y-68729400D01*
X97840224Y-68729400D02*
X97983081Y-68800828D01*
X97983081Y-68800828D02*
X98268795Y-68800828D01*
X98268795Y-68800828D02*
X98411653Y-68729400D01*
X98411653Y-68729400D02*
X98483081Y-68657971D01*
X98483081Y-68657971D02*
X98554510Y-68515114D01*
X98554510Y-68515114D02*
X98554510Y-68157971D01*
X98554510Y-68157971D02*
X98483081Y-68015114D01*
X98483081Y-68015114D02*
X98411653Y-67943685D01*
X98411653Y-67943685D02*
X98268795Y-67872257D01*
X98268795Y-67872257D02*
X97983081Y-67872257D01*
X97983081Y-67872257D02*
X97840224Y-67943685D01*
X97840224Y-67943685D02*
X97768795Y-68015114D01*
X97768795Y-68015114D02*
X97697367Y-68157971D01*
X99054509Y-67300828D02*
X100054509Y-67300828D01*
X100054509Y-67300828D02*
X99411652Y-68800828D01*
X101768794Y-68800828D02*
X101768794Y-67800828D01*
X101768794Y-67300828D02*
X101697366Y-67372257D01*
X101697366Y-67372257D02*
X101768794Y-67443685D01*
X101768794Y-67443685D02*
X101840223Y-67372257D01*
X101840223Y-67372257D02*
X101768794Y-67300828D01*
X101768794Y-67300828D02*
X101768794Y-67443685D01*
X102483080Y-67800828D02*
X102483080Y-68800828D01*
X102483080Y-67943685D02*
X102554509Y-67872257D01*
X102554509Y-67872257D02*
X102697366Y-67800828D01*
X102697366Y-67800828D02*
X102911652Y-67800828D01*
X102911652Y-67800828D02*
X103054509Y-67872257D01*
X103054509Y-67872257D02*
X103125938Y-68015114D01*
X103125938Y-68015114D02*
X103125938Y-68800828D01*
X103625938Y-67800828D02*
X104197366Y-67800828D01*
X103840223Y-67300828D02*
X103840223Y-68586542D01*
X103840223Y-68586542D02*
X103911652Y-68729400D01*
X103911652Y-68729400D02*
X104054509Y-68800828D01*
X104054509Y-68800828D02*
X104197366Y-68800828D01*
X105268795Y-68729400D02*
X105125938Y-68800828D01*
X105125938Y-68800828D02*
X104840224Y-68800828D01*
X104840224Y-68800828D02*
X104697366Y-68729400D01*
X104697366Y-68729400D02*
X104625938Y-68586542D01*
X104625938Y-68586542D02*
X104625938Y-68015114D01*
X104625938Y-68015114D02*
X104697366Y-67872257D01*
X104697366Y-67872257D02*
X104840224Y-67800828D01*
X104840224Y-67800828D02*
X105125938Y-67800828D01*
X105125938Y-67800828D02*
X105268795Y-67872257D01*
X105268795Y-67872257D02*
X105340224Y-68015114D01*
X105340224Y-68015114D02*
X105340224Y-68157971D01*
X105340224Y-68157971D02*
X104625938Y-68300828D01*
X105983080Y-68800828D02*
X105983080Y-67800828D01*
X105983080Y-68086542D02*
X106054509Y-67943685D01*
X106054509Y-67943685D02*
X106125938Y-67872257D01*
X106125938Y-67872257D02*
X106268795Y-67800828D01*
X106268795Y-67800828D02*
X106411652Y-67800828D01*
X106697366Y-67800828D02*
X107268794Y-67800828D01*
X106911651Y-68800828D02*
X106911651Y-67515114D01*
X106911651Y-67515114D02*
X106983080Y-67372257D01*
X106983080Y-67372257D02*
X107125937Y-67300828D01*
X107125937Y-67300828D02*
X107268794Y-67300828D01*
X108411652Y-68800828D02*
X108411652Y-68015114D01*
X108411652Y-68015114D02*
X108340223Y-67872257D01*
X108340223Y-67872257D02*
X108197366Y-67800828D01*
X108197366Y-67800828D02*
X107911652Y-67800828D01*
X107911652Y-67800828D02*
X107768794Y-67872257D01*
X108411652Y-68729400D02*
X108268794Y-68800828D01*
X108268794Y-68800828D02*
X107911652Y-68800828D01*
X107911652Y-68800828D02*
X107768794Y-68729400D01*
X107768794Y-68729400D02*
X107697366Y-68586542D01*
X107697366Y-68586542D02*
X107697366Y-68443685D01*
X107697366Y-68443685D02*
X107768794Y-68300828D01*
X107768794Y-68300828D02*
X107911652Y-68229400D01*
X107911652Y-68229400D02*
X108268794Y-68229400D01*
X108268794Y-68229400D02*
X108411652Y-68157971D01*
X109768795Y-68729400D02*
X109625937Y-68800828D01*
X109625937Y-68800828D02*
X109340223Y-68800828D01*
X109340223Y-68800828D02*
X109197366Y-68729400D01*
X109197366Y-68729400D02*
X109125937Y-68657971D01*
X109125937Y-68657971D02*
X109054509Y-68515114D01*
X109054509Y-68515114D02*
X109054509Y-68086542D01*
X109054509Y-68086542D02*
X109125937Y-67943685D01*
X109125937Y-67943685D02*
X109197366Y-67872257D01*
X109197366Y-67872257D02*
X109340223Y-67800828D01*
X109340223Y-67800828D02*
X109625937Y-67800828D01*
X109625937Y-67800828D02*
X109768795Y-67872257D01*
X110983080Y-68729400D02*
X110840223Y-68800828D01*
X110840223Y-68800828D02*
X110554509Y-68800828D01*
X110554509Y-68800828D02*
X110411651Y-68729400D01*
X110411651Y-68729400D02*
X110340223Y-68586542D01*
X110340223Y-68586542D02*
X110340223Y-68015114D01*
X110340223Y-68015114D02*
X110411651Y-67872257D01*
X110411651Y-67872257D02*
X110554509Y-67800828D01*
X110554509Y-67800828D02*
X110840223Y-67800828D01*
X110840223Y-67800828D02*
X110983080Y-67872257D01*
X110983080Y-67872257D02*
X111054509Y-68015114D01*
X111054509Y-68015114D02*
X111054509Y-68157971D01*
X111054509Y-68157971D02*
X110340223Y-68300828D01*
X113483080Y-68729400D02*
X113340222Y-68800828D01*
X113340222Y-68800828D02*
X113054508Y-68800828D01*
X113054508Y-68800828D02*
X112911651Y-68729400D01*
X112911651Y-68729400D02*
X112840222Y-68657971D01*
X112840222Y-68657971D02*
X112768794Y-68515114D01*
X112768794Y-68515114D02*
X112768794Y-68086542D01*
X112768794Y-68086542D02*
X112840222Y-67943685D01*
X112840222Y-67943685D02*
X112911651Y-67872257D01*
X112911651Y-67872257D02*
X113054508Y-67800828D01*
X113054508Y-67800828D02*
X113340222Y-67800828D01*
X113340222Y-67800828D02*
X113483080Y-67872257D01*
X114768794Y-68800828D02*
X114768794Y-68015114D01*
X114768794Y-68015114D02*
X114697365Y-67872257D01*
X114697365Y-67872257D02*
X114554508Y-67800828D01*
X114554508Y-67800828D02*
X114268794Y-67800828D01*
X114268794Y-67800828D02*
X114125936Y-67872257D01*
X114768794Y-68729400D02*
X114625936Y-68800828D01*
X114625936Y-68800828D02*
X114268794Y-68800828D01*
X114268794Y-68800828D02*
X114125936Y-68729400D01*
X114125936Y-68729400D02*
X114054508Y-68586542D01*
X114054508Y-68586542D02*
X114054508Y-68443685D01*
X114054508Y-68443685D02*
X114125936Y-68300828D01*
X114125936Y-68300828D02*
X114268794Y-68229400D01*
X114268794Y-68229400D02*
X114625936Y-68229400D01*
X114625936Y-68229400D02*
X114768794Y-68157971D01*
X115483079Y-68800828D02*
X115483079Y-67800828D01*
X115483079Y-68086542D02*
X115554508Y-67943685D01*
X115554508Y-67943685D02*
X115625937Y-67872257D01*
X115625937Y-67872257D02*
X115768794Y-67800828D01*
X115768794Y-67800828D02*
X115911651Y-67800828D01*
X117054508Y-68800828D02*
X117054508Y-67300828D01*
X117054508Y-68729400D02*
X116911650Y-68800828D01*
X116911650Y-68800828D02*
X116625936Y-68800828D01*
X116625936Y-68800828D02*
X116483079Y-68729400D01*
X116483079Y-68729400D02*
X116411650Y-68657971D01*
X116411650Y-68657971D02*
X116340222Y-68515114D01*
X116340222Y-68515114D02*
X116340222Y-68086542D01*
X116340222Y-68086542D02*
X116411650Y-67943685D01*
X116411650Y-67943685D02*
X116483079Y-67872257D01*
X116483079Y-67872257D02*
X116625936Y-67800828D01*
X116625936Y-67800828D02*
X116911650Y-67800828D01*
X116911650Y-67800828D02*
X117054508Y-67872257D01*
X118911650Y-68800828D02*
X118911650Y-67800828D01*
X118911650Y-68086542D02*
X118983079Y-67943685D01*
X118983079Y-67943685D02*
X119054508Y-67872257D01*
X119054508Y-67872257D02*
X119197365Y-67800828D01*
X119197365Y-67800828D02*
X119340222Y-67800828D01*
X120411650Y-68729400D02*
X120268793Y-68800828D01*
X120268793Y-68800828D02*
X119983079Y-68800828D01*
X119983079Y-68800828D02*
X119840221Y-68729400D01*
X119840221Y-68729400D02*
X119768793Y-68586542D01*
X119768793Y-68586542D02*
X119768793Y-68015114D01*
X119768793Y-68015114D02*
X119840221Y-67872257D01*
X119840221Y-67872257D02*
X119983079Y-67800828D01*
X119983079Y-67800828D02*
X120268793Y-67800828D01*
X120268793Y-67800828D02*
X120411650Y-67872257D01*
X120411650Y-67872257D02*
X120483079Y-68015114D01*
X120483079Y-68015114D02*
X120483079Y-68157971D01*
X120483079Y-68157971D02*
X119768793Y-68300828D01*
X121125935Y-67800828D02*
X121125935Y-69300828D01*
X121125935Y-67872257D02*
X121268793Y-67800828D01*
X121268793Y-67800828D02*
X121554507Y-67800828D01*
X121554507Y-67800828D02*
X121697364Y-67872257D01*
X121697364Y-67872257D02*
X121768793Y-67943685D01*
X121768793Y-67943685D02*
X121840221Y-68086542D01*
X121840221Y-68086542D02*
X121840221Y-68515114D01*
X121840221Y-68515114D02*
X121768793Y-68657971D01*
X121768793Y-68657971D02*
X121697364Y-68729400D01*
X121697364Y-68729400D02*
X121554507Y-68800828D01*
X121554507Y-68800828D02*
X121268793Y-68800828D01*
X121268793Y-68800828D02*
X121125935Y-68729400D01*
X122697364Y-68800828D02*
X122554507Y-68729400D01*
X122554507Y-68729400D02*
X122483078Y-68586542D01*
X122483078Y-68586542D02*
X122483078Y-67300828D01*
X123268792Y-68800828D02*
X123268792Y-67800828D01*
X123268792Y-67300828D02*
X123197364Y-67372257D01*
X123197364Y-67372257D02*
X123268792Y-67443685D01*
X123268792Y-67443685D02*
X123340221Y-67372257D01*
X123340221Y-67372257D02*
X123268792Y-67300828D01*
X123268792Y-67300828D02*
X123268792Y-67443685D01*
X124625936Y-68729400D02*
X124483078Y-68800828D01*
X124483078Y-68800828D02*
X124197364Y-68800828D01*
X124197364Y-68800828D02*
X124054507Y-68729400D01*
X124054507Y-68729400D02*
X123983078Y-68657971D01*
X123983078Y-68657971D02*
X123911650Y-68515114D01*
X123911650Y-68515114D02*
X123911650Y-68086542D01*
X123911650Y-68086542D02*
X123983078Y-67943685D01*
X123983078Y-67943685D02*
X124054507Y-67872257D01*
X124054507Y-67872257D02*
X124197364Y-67800828D01*
X124197364Y-67800828D02*
X124483078Y-67800828D01*
X124483078Y-67800828D02*
X124625936Y-67872257D01*
X125911650Y-68800828D02*
X125911650Y-68015114D01*
X125911650Y-68015114D02*
X125840221Y-67872257D01*
X125840221Y-67872257D02*
X125697364Y-67800828D01*
X125697364Y-67800828D02*
X125411650Y-67800828D01*
X125411650Y-67800828D02*
X125268792Y-67872257D01*
X125911650Y-68729400D02*
X125768792Y-68800828D01*
X125768792Y-68800828D02*
X125411650Y-68800828D01*
X125411650Y-68800828D02*
X125268792Y-68729400D01*
X125268792Y-68729400D02*
X125197364Y-68586542D01*
X125197364Y-68586542D02*
X125197364Y-68443685D01*
X125197364Y-68443685D02*
X125268792Y-68300828D01*
X125268792Y-68300828D02*
X125411650Y-68229400D01*
X125411650Y-68229400D02*
X125768792Y-68229400D01*
X125768792Y-68229400D02*
X125911650Y-68157971D01*
X128411650Y-68800828D02*
X128411650Y-67300828D01*
X128411650Y-68729400D02*
X128268792Y-68800828D01*
X128268792Y-68800828D02*
X127983078Y-68800828D01*
X127983078Y-68800828D02*
X127840221Y-68729400D01*
X127840221Y-68729400D02*
X127768792Y-68657971D01*
X127768792Y-68657971D02*
X127697364Y-68515114D01*
X127697364Y-68515114D02*
X127697364Y-68086542D01*
X127697364Y-68086542D02*
X127768792Y-67943685D01*
X127768792Y-67943685D02*
X127840221Y-67872257D01*
X127840221Y-67872257D02*
X127983078Y-67800828D01*
X127983078Y-67800828D02*
X128268792Y-67800828D01*
X128268792Y-67800828D02*
X128411650Y-67872257D01*
X129697364Y-68729400D02*
X129554507Y-68800828D01*
X129554507Y-68800828D02*
X129268793Y-68800828D01*
X129268793Y-68800828D02*
X129125935Y-68729400D01*
X129125935Y-68729400D02*
X129054507Y-68586542D01*
X129054507Y-68586542D02*
X129054507Y-68015114D01*
X129054507Y-68015114D02*
X129125935Y-67872257D01*
X129125935Y-67872257D02*
X129268793Y-67800828D01*
X129268793Y-67800828D02*
X129554507Y-67800828D01*
X129554507Y-67800828D02*
X129697364Y-67872257D01*
X129697364Y-67872257D02*
X129768793Y-68015114D01*
X129768793Y-68015114D02*
X129768793Y-68157971D01*
X129768793Y-68157971D02*
X129054507Y-68300828D01*
X130340221Y-68729400D02*
X130483078Y-68800828D01*
X130483078Y-68800828D02*
X130768792Y-68800828D01*
X130768792Y-68800828D02*
X130911649Y-68729400D01*
X130911649Y-68729400D02*
X130983078Y-68586542D01*
X130983078Y-68586542D02*
X130983078Y-68515114D01*
X130983078Y-68515114D02*
X130911649Y-68372257D01*
X130911649Y-68372257D02*
X130768792Y-68300828D01*
X130768792Y-68300828D02*
X130554507Y-68300828D01*
X130554507Y-68300828D02*
X130411649Y-68229400D01*
X130411649Y-68229400D02*
X130340221Y-68086542D01*
X130340221Y-68086542D02*
X130340221Y-68015114D01*
X130340221Y-68015114D02*
X130411649Y-67872257D01*
X130411649Y-67872257D02*
X130554507Y-67800828D01*
X130554507Y-67800828D02*
X130768792Y-67800828D01*
X130768792Y-67800828D02*
X130911649Y-67872257D01*
X131625935Y-68800828D02*
X131625935Y-67800828D01*
X131625935Y-67300828D02*
X131554507Y-67372257D01*
X131554507Y-67372257D02*
X131625935Y-67443685D01*
X131625935Y-67443685D02*
X131697364Y-67372257D01*
X131697364Y-67372257D02*
X131625935Y-67300828D01*
X131625935Y-67300828D02*
X131625935Y-67443685D01*
X132983079Y-67800828D02*
X132983079Y-69015114D01*
X132983079Y-69015114D02*
X132911650Y-69157971D01*
X132911650Y-69157971D02*
X132840221Y-69229400D01*
X132840221Y-69229400D02*
X132697364Y-69300828D01*
X132697364Y-69300828D02*
X132483079Y-69300828D01*
X132483079Y-69300828D02*
X132340221Y-69229400D01*
X132983079Y-68729400D02*
X132840221Y-68800828D01*
X132840221Y-68800828D02*
X132554507Y-68800828D01*
X132554507Y-68800828D02*
X132411650Y-68729400D01*
X132411650Y-68729400D02*
X132340221Y-68657971D01*
X132340221Y-68657971D02*
X132268793Y-68515114D01*
X132268793Y-68515114D02*
X132268793Y-68086542D01*
X132268793Y-68086542D02*
X132340221Y-67943685D01*
X132340221Y-67943685D02*
X132411650Y-67872257D01*
X132411650Y-67872257D02*
X132554507Y-67800828D01*
X132554507Y-67800828D02*
X132840221Y-67800828D01*
X132840221Y-67800828D02*
X132983079Y-67872257D01*
X133697364Y-67800828D02*
X133697364Y-68800828D01*
X133697364Y-67943685D02*
X133768793Y-67872257D01*
X133768793Y-67872257D02*
X133911650Y-67800828D01*
X133911650Y-67800828D02*
X134125936Y-67800828D01*
X134125936Y-67800828D02*
X134268793Y-67872257D01*
X134268793Y-67872257D02*
X134340222Y-68015114D01*
X134340222Y-68015114D02*
X134340222Y-68800828D01*
X135625936Y-68729400D02*
X135483079Y-68800828D01*
X135483079Y-68800828D02*
X135197365Y-68800828D01*
X135197365Y-68800828D02*
X135054507Y-68729400D01*
X135054507Y-68729400D02*
X134983079Y-68586542D01*
X134983079Y-68586542D02*
X134983079Y-68015114D01*
X134983079Y-68015114D02*
X135054507Y-67872257D01*
X135054507Y-67872257D02*
X135197365Y-67800828D01*
X135197365Y-67800828D02*
X135483079Y-67800828D01*
X135483079Y-67800828D02*
X135625936Y-67872257D01*
X135625936Y-67872257D02*
X135697365Y-68015114D01*
X135697365Y-68015114D02*
X135697365Y-68157971D01*
X135697365Y-68157971D02*
X134983079Y-68300828D01*
X136983079Y-68800828D02*
X136983079Y-67300828D01*
X136983079Y-68729400D02*
X136840221Y-68800828D01*
X136840221Y-68800828D02*
X136554507Y-68800828D01*
X136554507Y-68800828D02*
X136411650Y-68729400D01*
X136411650Y-68729400D02*
X136340221Y-68657971D01*
X136340221Y-68657971D02*
X136268793Y-68515114D01*
X136268793Y-68515114D02*
X136268793Y-68086542D01*
X136268793Y-68086542D02*
X136340221Y-67943685D01*
X136340221Y-67943685D02*
X136411650Y-67872257D01*
X136411650Y-67872257D02*
X136554507Y-67800828D01*
X136554507Y-67800828D02*
X136840221Y-67800828D01*
X136840221Y-67800828D02*
X136983079Y-67872257D01*
X138840221Y-68800828D02*
X138840221Y-67300828D01*
X138840221Y-67872257D02*
X138983079Y-67800828D01*
X138983079Y-67800828D02*
X139268793Y-67800828D01*
X139268793Y-67800828D02*
X139411650Y-67872257D01*
X139411650Y-67872257D02*
X139483079Y-67943685D01*
X139483079Y-67943685D02*
X139554507Y-68086542D01*
X139554507Y-68086542D02*
X139554507Y-68515114D01*
X139554507Y-68515114D02*
X139483079Y-68657971D01*
X139483079Y-68657971D02*
X139411650Y-68729400D01*
X139411650Y-68729400D02*
X139268793Y-68800828D01*
X139268793Y-68800828D02*
X138983079Y-68800828D01*
X138983079Y-68800828D02*
X138840221Y-68729400D01*
X140054507Y-67800828D02*
X140411650Y-68800828D01*
X140768793Y-67800828D02*
X140411650Y-68800828D01*
X140411650Y-68800828D02*
X140268793Y-69157971D01*
X140268793Y-69157971D02*
X140197364Y-69229400D01*
X140197364Y-69229400D02*
X140054507Y-69300828D01*
X143340221Y-68800828D02*
X142840221Y-68086542D01*
X142483078Y-68800828D02*
X142483078Y-67300828D01*
X142483078Y-67300828D02*
X143054507Y-67300828D01*
X143054507Y-67300828D02*
X143197364Y-67372257D01*
X143197364Y-67372257D02*
X143268793Y-67443685D01*
X143268793Y-67443685D02*
X143340221Y-67586542D01*
X143340221Y-67586542D02*
X143340221Y-67800828D01*
X143340221Y-67800828D02*
X143268793Y-67943685D01*
X143268793Y-67943685D02*
X143197364Y-68015114D01*
X143197364Y-68015114D02*
X143054507Y-68086542D01*
X143054507Y-68086542D02*
X142483078Y-68086542D01*
X144197364Y-68800828D02*
X144054507Y-68729400D01*
X144054507Y-68729400D02*
X143983078Y-68657971D01*
X143983078Y-68657971D02*
X143911650Y-68515114D01*
X143911650Y-68515114D02*
X143911650Y-68086542D01*
X143911650Y-68086542D02*
X143983078Y-67943685D01*
X143983078Y-67943685D02*
X144054507Y-67872257D01*
X144054507Y-67872257D02*
X144197364Y-67800828D01*
X144197364Y-67800828D02*
X144411650Y-67800828D01*
X144411650Y-67800828D02*
X144554507Y-67872257D01*
X144554507Y-67872257D02*
X144625936Y-67943685D01*
X144625936Y-67943685D02*
X144697364Y-68086542D01*
X144697364Y-68086542D02*
X144697364Y-68515114D01*
X144697364Y-68515114D02*
X144625936Y-68657971D01*
X144625936Y-68657971D02*
X144554507Y-68729400D01*
X144554507Y-68729400D02*
X144411650Y-68800828D01*
X144411650Y-68800828D02*
X144197364Y-68800828D01*
X145268793Y-68729400D02*
X145411650Y-68800828D01*
X145411650Y-68800828D02*
X145697364Y-68800828D01*
X145697364Y-68800828D02*
X145840221Y-68729400D01*
X145840221Y-68729400D02*
X145911650Y-68586542D01*
X145911650Y-68586542D02*
X145911650Y-68515114D01*
X145911650Y-68515114D02*
X145840221Y-68372257D01*
X145840221Y-68372257D02*
X145697364Y-68300828D01*
X145697364Y-68300828D02*
X145483079Y-68300828D01*
X145483079Y-68300828D02*
X145340221Y-68229400D01*
X145340221Y-68229400D02*
X145268793Y-68086542D01*
X145268793Y-68086542D02*
X145268793Y-68015114D01*
X145268793Y-68015114D02*
X145340221Y-67872257D01*
X145340221Y-67872257D02*
X145483079Y-67800828D01*
X145483079Y-67800828D02*
X145697364Y-67800828D01*
X145697364Y-67800828D02*
X145840221Y-67872257D01*
X146483079Y-68729400D02*
X146625936Y-68800828D01*
X146625936Y-68800828D02*
X146911650Y-68800828D01*
X146911650Y-68800828D02*
X147054507Y-68729400D01*
X147054507Y-68729400D02*
X147125936Y-68586542D01*
X147125936Y-68586542D02*
X147125936Y-68515114D01*
X147125936Y-68515114D02*
X147054507Y-68372257D01*
X147054507Y-68372257D02*
X146911650Y-68300828D01*
X146911650Y-68300828D02*
X146697365Y-68300828D01*
X146697365Y-68300828D02*
X146554507Y-68229400D01*
X146554507Y-68229400D02*
X146483079Y-68086542D01*
X146483079Y-68086542D02*
X146483079Y-68015114D01*
X146483079Y-68015114D02*
X146554507Y-67872257D01*
X146554507Y-67872257D02*
X146697365Y-67800828D01*
X146697365Y-67800828D02*
X146911650Y-67800828D01*
X146911650Y-67800828D02*
X147054507Y-67872257D01*
X149411650Y-68015114D02*
X149625936Y-68086542D01*
X149625936Y-68086542D02*
X149697365Y-68157971D01*
X149697365Y-68157971D02*
X149768793Y-68300828D01*
X149768793Y-68300828D02*
X149768793Y-68515114D01*
X149768793Y-68515114D02*
X149697365Y-68657971D01*
X149697365Y-68657971D02*
X149625936Y-68729400D01*
X149625936Y-68729400D02*
X149483079Y-68800828D01*
X149483079Y-68800828D02*
X148911650Y-68800828D01*
X148911650Y-68800828D02*
X148911650Y-67300828D01*
X148911650Y-67300828D02*
X149411650Y-67300828D01*
X149411650Y-67300828D02*
X149554508Y-67372257D01*
X149554508Y-67372257D02*
X149625936Y-67443685D01*
X149625936Y-67443685D02*
X149697365Y-67586542D01*
X149697365Y-67586542D02*
X149697365Y-67729400D01*
X149697365Y-67729400D02*
X149625936Y-67872257D01*
X149625936Y-67872257D02*
X149554508Y-67943685D01*
X149554508Y-67943685D02*
X149411650Y-68015114D01*
X149411650Y-68015114D02*
X148911650Y-68015114D01*
X150983079Y-68729400D02*
X150840222Y-68800828D01*
X150840222Y-68800828D02*
X150554508Y-68800828D01*
X150554508Y-68800828D02*
X150411650Y-68729400D01*
X150411650Y-68729400D02*
X150340222Y-68586542D01*
X150340222Y-68586542D02*
X150340222Y-68015114D01*
X150340222Y-68015114D02*
X150411650Y-67872257D01*
X150411650Y-67872257D02*
X150554508Y-67800828D01*
X150554508Y-67800828D02*
X150840222Y-67800828D01*
X150840222Y-67800828D02*
X150983079Y-67872257D01*
X150983079Y-67872257D02*
X151054508Y-68015114D01*
X151054508Y-68015114D02*
X151054508Y-68157971D01*
X151054508Y-68157971D02*
X150340222Y-68300828D01*
X152340222Y-68729400D02*
X152197364Y-68800828D01*
X152197364Y-68800828D02*
X151911650Y-68800828D01*
X151911650Y-68800828D02*
X151768793Y-68729400D01*
X151768793Y-68729400D02*
X151697364Y-68657971D01*
X151697364Y-68657971D02*
X151625936Y-68515114D01*
X151625936Y-68515114D02*
X151625936Y-68086542D01*
X151625936Y-68086542D02*
X151697364Y-67943685D01*
X151697364Y-67943685D02*
X151768793Y-67872257D01*
X151768793Y-67872257D02*
X151911650Y-67800828D01*
X151911650Y-67800828D02*
X152197364Y-67800828D01*
X152197364Y-67800828D02*
X152340222Y-67872257D01*
X152983078Y-68800828D02*
X152983078Y-67300828D01*
X153125936Y-68229400D02*
X153554507Y-68800828D01*
X153554507Y-67800828D02*
X152983078Y-68372257D01*
X154768793Y-68729400D02*
X154625936Y-68800828D01*
X154625936Y-68800828D02*
X154340222Y-68800828D01*
X154340222Y-68800828D02*
X154197364Y-68729400D01*
X154197364Y-68729400D02*
X154125936Y-68586542D01*
X154125936Y-68586542D02*
X154125936Y-68015114D01*
X154125936Y-68015114D02*
X154197364Y-67872257D01*
X154197364Y-67872257D02*
X154340222Y-67800828D01*
X154340222Y-67800828D02*
X154625936Y-67800828D01*
X154625936Y-67800828D02*
X154768793Y-67872257D01*
X154768793Y-67872257D02*
X154840222Y-68015114D01*
X154840222Y-68015114D02*
X154840222Y-68157971D01*
X154840222Y-68157971D02*
X154125936Y-68300828D01*
X155268793Y-67800828D02*
X155840221Y-67800828D01*
X155483078Y-67300828D02*
X155483078Y-68586542D01*
X155483078Y-68586542D02*
X155554507Y-68729400D01*
X155554507Y-68729400D02*
X155697364Y-68800828D01*
X155697364Y-68800828D02*
X155840221Y-68800828D01*
X156125936Y-67800828D02*
X156697364Y-67800828D01*
X156340221Y-67300828D02*
X156340221Y-68586542D01*
X156340221Y-68586542D02*
X156411650Y-68729400D01*
X156411650Y-68729400D02*
X156554507Y-68800828D01*
X156554507Y-68800828D02*
X156697364Y-68800828D01*
X158340221Y-68800828D02*
X158340221Y-67800828D01*
X158340221Y-67300828D02*
X158268793Y-67372257D01*
X158268793Y-67372257D02*
X158340221Y-67443685D01*
X158340221Y-67443685D02*
X158411650Y-67372257D01*
X158411650Y-67372257D02*
X158340221Y-67300828D01*
X158340221Y-67300828D02*
X158340221Y-67443685D01*
X159054507Y-67800828D02*
X159054507Y-68800828D01*
X159054507Y-67943685D02*
X159125936Y-67872257D01*
X159125936Y-67872257D02*
X159268793Y-67800828D01*
X159268793Y-67800828D02*
X159483079Y-67800828D01*
X159483079Y-67800828D02*
X159625936Y-67872257D01*
X159625936Y-67872257D02*
X159697365Y-68015114D01*
X159697365Y-68015114D02*
X159697365Y-68800828D01*
X161483079Y-67443685D02*
X161554507Y-67372257D01*
X161554507Y-67372257D02*
X161697365Y-67300828D01*
X161697365Y-67300828D02*
X162054507Y-67300828D01*
X162054507Y-67300828D02*
X162197365Y-67372257D01*
X162197365Y-67372257D02*
X162268793Y-67443685D01*
X162268793Y-67443685D02*
X162340222Y-67586542D01*
X162340222Y-67586542D02*
X162340222Y-67729400D01*
X162340222Y-67729400D02*
X162268793Y-67943685D01*
X162268793Y-67943685D02*
X161411650Y-68800828D01*
X161411650Y-68800828D02*
X162340222Y-68800828D01*
X163268793Y-67300828D02*
X163411650Y-67300828D01*
X163411650Y-67300828D02*
X163554507Y-67372257D01*
X163554507Y-67372257D02*
X163625936Y-67443685D01*
X163625936Y-67443685D02*
X163697364Y-67586542D01*
X163697364Y-67586542D02*
X163768793Y-67872257D01*
X163768793Y-67872257D02*
X163768793Y-68229400D01*
X163768793Y-68229400D02*
X163697364Y-68515114D01*
X163697364Y-68515114D02*
X163625936Y-68657971D01*
X163625936Y-68657971D02*
X163554507Y-68729400D01*
X163554507Y-68729400D02*
X163411650Y-68800828D01*
X163411650Y-68800828D02*
X163268793Y-68800828D01*
X163268793Y-68800828D02*
X163125936Y-68729400D01*
X163125936Y-68729400D02*
X163054507Y-68657971D01*
X163054507Y-68657971D02*
X162983078Y-68515114D01*
X162983078Y-68515114D02*
X162911650Y-68229400D01*
X162911650Y-68229400D02*
X162911650Y-67872257D01*
X162911650Y-67872257D02*
X162983078Y-67586542D01*
X162983078Y-67586542D02*
X163054507Y-67443685D01*
X163054507Y-67443685D02*
X163125936Y-67372257D01*
X163125936Y-67372257D02*
X163268793Y-67300828D01*
X164340221Y-67443685D02*
X164411649Y-67372257D01*
X164411649Y-67372257D02*
X164554507Y-67300828D01*
X164554507Y-67300828D02*
X164911649Y-67300828D01*
X164911649Y-67300828D02*
X165054507Y-67372257D01*
X165054507Y-67372257D02*
X165125935Y-67443685D01*
X165125935Y-67443685D02*
X165197364Y-67586542D01*
X165197364Y-67586542D02*
X165197364Y-67729400D01*
X165197364Y-67729400D02*
X165125935Y-67943685D01*
X165125935Y-67943685D02*
X164268792Y-68800828D01*
X164268792Y-68800828D02*
X165197364Y-68800828D01*
X166483078Y-67800828D02*
X166483078Y-68800828D01*
X166125935Y-67229400D02*
X165768792Y-68300828D01*
X165768792Y-68300828D02*
X166697363Y-68300828D01*
X168840220Y-69372257D02*
X168768791Y-69300828D01*
X168768791Y-69300828D02*
X168625934Y-69086542D01*
X168625934Y-69086542D02*
X168554506Y-68943685D01*
X168554506Y-68943685D02*
X168483077Y-68729400D01*
X168483077Y-68729400D02*
X168411648Y-68372257D01*
X168411648Y-68372257D02*
X168411648Y-68086542D01*
X168411648Y-68086542D02*
X168483077Y-67729400D01*
X168483077Y-67729400D02*
X168554506Y-67515114D01*
X168554506Y-67515114D02*
X168625934Y-67372257D01*
X168625934Y-67372257D02*
X168768791Y-67157971D01*
X168768791Y-67157971D02*
X168840220Y-67086542D01*
X169411648Y-68800828D02*
X169411648Y-67800828D01*
X169411648Y-68086542D02*
X169483077Y-67943685D01*
X169483077Y-67943685D02*
X169554506Y-67872257D01*
X169554506Y-67872257D02*
X169697363Y-67800828D01*
X169697363Y-67800828D02*
X169840220Y-67800828D01*
X170554505Y-68800828D02*
X170411648Y-68729400D01*
X170411648Y-68729400D02*
X170340219Y-68657971D01*
X170340219Y-68657971D02*
X170268791Y-68515114D01*
X170268791Y-68515114D02*
X170268791Y-68086542D01*
X170268791Y-68086542D02*
X170340219Y-67943685D01*
X170340219Y-67943685D02*
X170411648Y-67872257D01*
X170411648Y-67872257D02*
X170554505Y-67800828D01*
X170554505Y-67800828D02*
X170768791Y-67800828D01*
X170768791Y-67800828D02*
X170911648Y-67872257D01*
X170911648Y-67872257D02*
X170983077Y-67943685D01*
X170983077Y-67943685D02*
X171054505Y-68086542D01*
X171054505Y-68086542D02*
X171054505Y-68515114D01*
X171054505Y-68515114D02*
X170983077Y-68657971D01*
X170983077Y-68657971D02*
X170911648Y-68729400D01*
X170911648Y-68729400D02*
X170768791Y-68800828D01*
X170768791Y-68800828D02*
X170554505Y-68800828D01*
X171625934Y-68729400D02*
X171768791Y-68800828D01*
X171768791Y-68800828D02*
X172054505Y-68800828D01*
X172054505Y-68800828D02*
X172197362Y-68729400D01*
X172197362Y-68729400D02*
X172268791Y-68586542D01*
X172268791Y-68586542D02*
X172268791Y-68515114D01*
X172268791Y-68515114D02*
X172197362Y-68372257D01*
X172197362Y-68372257D02*
X172054505Y-68300828D01*
X172054505Y-68300828D02*
X171840220Y-68300828D01*
X171840220Y-68300828D02*
X171697362Y-68229400D01*
X171697362Y-68229400D02*
X171625934Y-68086542D01*
X171625934Y-68086542D02*
X171625934Y-68015114D01*
X171625934Y-68015114D02*
X171697362Y-67872257D01*
X171697362Y-67872257D02*
X171840220Y-67800828D01*
X171840220Y-67800828D02*
X172054505Y-67800828D01*
X172054505Y-67800828D02*
X172197362Y-67872257D01*
X172840220Y-68729400D02*
X172983077Y-68800828D01*
X172983077Y-68800828D02*
X173268791Y-68800828D01*
X173268791Y-68800828D02*
X173411648Y-68729400D01*
X173411648Y-68729400D02*
X173483077Y-68586542D01*
X173483077Y-68586542D02*
X173483077Y-68515114D01*
X173483077Y-68515114D02*
X173411648Y-68372257D01*
X173411648Y-68372257D02*
X173268791Y-68300828D01*
X173268791Y-68300828D02*
X173054506Y-68300828D01*
X173054506Y-68300828D02*
X172911648Y-68229400D01*
X172911648Y-68229400D02*
X172840220Y-68086542D01*
X172840220Y-68086542D02*
X172840220Y-68015114D01*
X172840220Y-68015114D02*
X172911648Y-67872257D01*
X172911648Y-67872257D02*
X173054506Y-67800828D01*
X173054506Y-67800828D02*
X173268791Y-67800828D01*
X173268791Y-67800828D02*
X173411648Y-67872257D01*
X174768792Y-68800828D02*
X174768792Y-67300828D01*
X174768792Y-68729400D02*
X174625934Y-68800828D01*
X174625934Y-68800828D02*
X174340220Y-68800828D01*
X174340220Y-68800828D02*
X174197363Y-68729400D01*
X174197363Y-68729400D02*
X174125934Y-68657971D01*
X174125934Y-68657971D02*
X174054506Y-68515114D01*
X174054506Y-68515114D02*
X174054506Y-68086542D01*
X174054506Y-68086542D02*
X174125934Y-67943685D01*
X174125934Y-67943685D02*
X174197363Y-67872257D01*
X174197363Y-67872257D02*
X174340220Y-67800828D01*
X174340220Y-67800828D02*
X174625934Y-67800828D01*
X174625934Y-67800828D02*
X174768792Y-67872257D01*
X176125935Y-68800828D02*
X176125935Y-68015114D01*
X176125935Y-68015114D02*
X176054506Y-67872257D01*
X176054506Y-67872257D02*
X175911649Y-67800828D01*
X175911649Y-67800828D02*
X175625935Y-67800828D01*
X175625935Y-67800828D02*
X175483077Y-67872257D01*
X176125935Y-68729400D02*
X175983077Y-68800828D01*
X175983077Y-68800828D02*
X175625935Y-68800828D01*
X175625935Y-68800828D02*
X175483077Y-68729400D01*
X175483077Y-68729400D02*
X175411649Y-68586542D01*
X175411649Y-68586542D02*
X175411649Y-68443685D01*
X175411649Y-68443685D02*
X175483077Y-68300828D01*
X175483077Y-68300828D02*
X175625935Y-68229400D01*
X175625935Y-68229400D02*
X175983077Y-68229400D01*
X175983077Y-68229400D02*
X176125935Y-68157971D01*
X176697363Y-67800828D02*
X177054506Y-68800828D01*
X177054506Y-68800828D02*
X177411649Y-67800828D01*
X177983077Y-68800828D02*
X177983077Y-67800828D01*
X177983077Y-67300828D02*
X177911649Y-67372257D01*
X177911649Y-67372257D02*
X177983077Y-67443685D01*
X177983077Y-67443685D02*
X178054506Y-67372257D01*
X178054506Y-67372257D02*
X177983077Y-67300828D01*
X177983077Y-67300828D02*
X177983077Y-67443685D01*
X179340221Y-68800828D02*
X179340221Y-67300828D01*
X179340221Y-68729400D02*
X179197363Y-68800828D01*
X179197363Y-68800828D02*
X178911649Y-68800828D01*
X178911649Y-68800828D02*
X178768792Y-68729400D01*
X178768792Y-68729400D02*
X178697363Y-68657971D01*
X178697363Y-68657971D02*
X178625935Y-68515114D01*
X178625935Y-68515114D02*
X178625935Y-68086542D01*
X178625935Y-68086542D02*
X178697363Y-67943685D01*
X178697363Y-67943685D02*
X178768792Y-67872257D01*
X178768792Y-67872257D02*
X178911649Y-67800828D01*
X178911649Y-67800828D02*
X179197363Y-67800828D01*
X179197363Y-67800828D02*
X179340221Y-67872257D01*
X180054506Y-68800828D02*
X180054506Y-67300828D01*
X180054506Y-67872257D02*
X180197364Y-67800828D01*
X180197364Y-67800828D02*
X180483078Y-67800828D01*
X180483078Y-67800828D02*
X180625935Y-67872257D01*
X180625935Y-67872257D02*
X180697364Y-67943685D01*
X180697364Y-67943685D02*
X180768792Y-68086542D01*
X180768792Y-68086542D02*
X180768792Y-68515114D01*
X180768792Y-68515114D02*
X180697364Y-68657971D01*
X180697364Y-68657971D02*
X180625935Y-68729400D01*
X180625935Y-68729400D02*
X180483078Y-68800828D01*
X180483078Y-68800828D02*
X180197364Y-68800828D01*
X180197364Y-68800828D02*
X180054506Y-68729400D01*
X181983078Y-68729400D02*
X181840221Y-68800828D01*
X181840221Y-68800828D02*
X181554507Y-68800828D01*
X181554507Y-68800828D02*
X181411649Y-68729400D01*
X181411649Y-68729400D02*
X181340221Y-68586542D01*
X181340221Y-68586542D02*
X181340221Y-68015114D01*
X181340221Y-68015114D02*
X181411649Y-67872257D01*
X181411649Y-67872257D02*
X181554507Y-67800828D01*
X181554507Y-67800828D02*
X181840221Y-67800828D01*
X181840221Y-67800828D02*
X181983078Y-67872257D01*
X181983078Y-67872257D02*
X182054507Y-68015114D01*
X182054507Y-68015114D02*
X182054507Y-68157971D01*
X182054507Y-68157971D02*
X181340221Y-68300828D01*
X183340221Y-68729400D02*
X183197363Y-68800828D01*
X183197363Y-68800828D02*
X182911649Y-68800828D01*
X182911649Y-68800828D02*
X182768792Y-68729400D01*
X182768792Y-68729400D02*
X182697363Y-68657971D01*
X182697363Y-68657971D02*
X182625935Y-68515114D01*
X182625935Y-68515114D02*
X182625935Y-68086542D01*
X182625935Y-68086542D02*
X182697363Y-67943685D01*
X182697363Y-67943685D02*
X182768792Y-67872257D01*
X182768792Y-67872257D02*
X182911649Y-67800828D01*
X182911649Y-67800828D02*
X183197363Y-67800828D01*
X183197363Y-67800828D02*
X183340221Y-67872257D01*
X183983077Y-68800828D02*
X183983077Y-67300828D01*
X184125935Y-68229400D02*
X184554506Y-68800828D01*
X184554506Y-67800828D02*
X183983077Y-68372257D01*
X185768792Y-68729400D02*
X185625935Y-68800828D01*
X185625935Y-68800828D02*
X185340221Y-68800828D01*
X185340221Y-68800828D02*
X185197363Y-68729400D01*
X185197363Y-68729400D02*
X185125935Y-68586542D01*
X185125935Y-68586542D02*
X185125935Y-68015114D01*
X185125935Y-68015114D02*
X185197363Y-67872257D01*
X185197363Y-67872257D02*
X185340221Y-67800828D01*
X185340221Y-67800828D02*
X185625935Y-67800828D01*
X185625935Y-67800828D02*
X185768792Y-67872257D01*
X185768792Y-67872257D02*
X185840221Y-68015114D01*
X185840221Y-68015114D02*
X185840221Y-68157971D01*
X185840221Y-68157971D02*
X185125935Y-68300828D01*
X186268792Y-67800828D02*
X186840220Y-67800828D01*
X186483077Y-67300828D02*
X186483077Y-68586542D01*
X186483077Y-68586542D02*
X186554506Y-68729400D01*
X186554506Y-68729400D02*
X186697363Y-68800828D01*
X186697363Y-68800828D02*
X186840220Y-68800828D01*
X187125935Y-67800828D02*
X187697363Y-67800828D01*
X187340220Y-67300828D02*
X187340220Y-68586542D01*
X187340220Y-68586542D02*
X187411649Y-68729400D01*
X187411649Y-68729400D02*
X187554506Y-68800828D01*
X187554506Y-68800828D02*
X187697363Y-68800828D01*
X189125935Y-68086542D02*
X189054506Y-68015114D01*
X189054506Y-68015114D02*
X188911649Y-67943685D01*
X188911649Y-67943685D02*
X188768792Y-67943685D01*
X188768792Y-67943685D02*
X188625935Y-68015114D01*
X188625935Y-68015114D02*
X188554506Y-68086542D01*
X188554506Y-68086542D02*
X188483078Y-68229400D01*
X188483078Y-68229400D02*
X188483078Y-68372257D01*
X188483078Y-68372257D02*
X188554506Y-68515114D01*
X188554506Y-68515114D02*
X188625935Y-68586542D01*
X188625935Y-68586542D02*
X188768792Y-68657971D01*
X188768792Y-68657971D02*
X188911649Y-68657971D01*
X188911649Y-68657971D02*
X189054506Y-68586542D01*
X189054506Y-68586542D02*
X189125935Y-68515114D01*
X189125935Y-67943685D02*
X189125935Y-68515114D01*
X189125935Y-68515114D02*
X189197363Y-68586542D01*
X189197363Y-68586542D02*
X189268792Y-68586542D01*
X189268792Y-68586542D02*
X189411649Y-68515114D01*
X189411649Y-68515114D02*
X189483078Y-68372257D01*
X189483078Y-68372257D02*
X189483078Y-68015114D01*
X189483078Y-68015114D02*
X189340221Y-67800828D01*
X189340221Y-67800828D02*
X189125935Y-67657971D01*
X189125935Y-67657971D02*
X188840221Y-67586542D01*
X188840221Y-67586542D02*
X188554506Y-67657971D01*
X188554506Y-67657971D02*
X188340221Y-67800828D01*
X188340221Y-67800828D02*
X188197363Y-68015114D01*
X188197363Y-68015114D02*
X188125935Y-68300828D01*
X188125935Y-68300828D02*
X188197363Y-68586542D01*
X188197363Y-68586542D02*
X188340221Y-68800828D01*
X188340221Y-68800828D02*
X188554506Y-68943685D01*
X188554506Y-68943685D02*
X188840221Y-69015114D01*
X188840221Y-69015114D02*
X189125935Y-68943685D01*
X189125935Y-68943685D02*
X189340221Y-68800828D01*
X190768792Y-67800828D02*
X190768792Y-69015114D01*
X190768792Y-69015114D02*
X190697363Y-69157971D01*
X190697363Y-69157971D02*
X190625934Y-69229400D01*
X190625934Y-69229400D02*
X190483077Y-69300828D01*
X190483077Y-69300828D02*
X190268792Y-69300828D01*
X190268792Y-69300828D02*
X190125934Y-69229400D01*
X190768792Y-68729400D02*
X190625934Y-68800828D01*
X190625934Y-68800828D02*
X190340220Y-68800828D01*
X190340220Y-68800828D02*
X190197363Y-68729400D01*
X190197363Y-68729400D02*
X190125934Y-68657971D01*
X190125934Y-68657971D02*
X190054506Y-68515114D01*
X190054506Y-68515114D02*
X190054506Y-68086542D01*
X190054506Y-68086542D02*
X190125934Y-67943685D01*
X190125934Y-67943685D02*
X190197363Y-67872257D01*
X190197363Y-67872257D02*
X190340220Y-67800828D01*
X190340220Y-67800828D02*
X190625934Y-67800828D01*
X190625934Y-67800828D02*
X190768792Y-67872257D01*
X191483077Y-68800828D02*
X191483077Y-67800828D01*
X191483077Y-67943685D02*
X191554506Y-67872257D01*
X191554506Y-67872257D02*
X191697363Y-67800828D01*
X191697363Y-67800828D02*
X191911649Y-67800828D01*
X191911649Y-67800828D02*
X192054506Y-67872257D01*
X192054506Y-67872257D02*
X192125935Y-68015114D01*
X192125935Y-68015114D02*
X192125935Y-68800828D01*
X192125935Y-68015114D02*
X192197363Y-67872257D01*
X192197363Y-67872257D02*
X192340220Y-67800828D01*
X192340220Y-67800828D02*
X192554506Y-67800828D01*
X192554506Y-67800828D02*
X192697363Y-67872257D01*
X192697363Y-67872257D02*
X192768792Y-68015114D01*
X192768792Y-68015114D02*
X192768792Y-68800828D01*
X194125935Y-68800828D02*
X194125935Y-68015114D01*
X194125935Y-68015114D02*
X194054506Y-67872257D01*
X194054506Y-67872257D02*
X193911649Y-67800828D01*
X193911649Y-67800828D02*
X193625935Y-67800828D01*
X193625935Y-67800828D02*
X193483077Y-67872257D01*
X194125935Y-68729400D02*
X193983077Y-68800828D01*
X193983077Y-68800828D02*
X193625935Y-68800828D01*
X193625935Y-68800828D02*
X193483077Y-68729400D01*
X193483077Y-68729400D02*
X193411649Y-68586542D01*
X193411649Y-68586542D02*
X193411649Y-68443685D01*
X193411649Y-68443685D02*
X193483077Y-68300828D01*
X193483077Y-68300828D02*
X193625935Y-68229400D01*
X193625935Y-68229400D02*
X193983077Y-68229400D01*
X193983077Y-68229400D02*
X194125935Y-68157971D01*
X194840220Y-68800828D02*
X194840220Y-67800828D01*
X194840220Y-67300828D02*
X194768792Y-67372257D01*
X194768792Y-67372257D02*
X194840220Y-67443685D01*
X194840220Y-67443685D02*
X194911649Y-67372257D01*
X194911649Y-67372257D02*
X194840220Y-67300828D01*
X194840220Y-67300828D02*
X194840220Y-67443685D01*
X195768792Y-68800828D02*
X195625935Y-68729400D01*
X195625935Y-68729400D02*
X195554506Y-68586542D01*
X195554506Y-68586542D02*
X195554506Y-67300828D01*
X196340220Y-68657971D02*
X196411649Y-68729400D01*
X196411649Y-68729400D02*
X196340220Y-68800828D01*
X196340220Y-68800828D02*
X196268792Y-68729400D01*
X196268792Y-68729400D02*
X196340220Y-68657971D01*
X196340220Y-68657971D02*
X196340220Y-68800828D01*
X197697364Y-68729400D02*
X197554506Y-68800828D01*
X197554506Y-68800828D02*
X197268792Y-68800828D01*
X197268792Y-68800828D02*
X197125935Y-68729400D01*
X197125935Y-68729400D02*
X197054506Y-68657971D01*
X197054506Y-68657971D02*
X196983078Y-68515114D01*
X196983078Y-68515114D02*
X196983078Y-68086542D01*
X196983078Y-68086542D02*
X197054506Y-67943685D01*
X197054506Y-67943685D02*
X197125935Y-67872257D01*
X197125935Y-67872257D02*
X197268792Y-67800828D01*
X197268792Y-67800828D02*
X197554506Y-67800828D01*
X197554506Y-67800828D02*
X197697364Y-67872257D01*
X198554506Y-68800828D02*
X198411649Y-68729400D01*
X198411649Y-68729400D02*
X198340220Y-68657971D01*
X198340220Y-68657971D02*
X198268792Y-68515114D01*
X198268792Y-68515114D02*
X198268792Y-68086542D01*
X198268792Y-68086542D02*
X198340220Y-67943685D01*
X198340220Y-67943685D02*
X198411649Y-67872257D01*
X198411649Y-67872257D02*
X198554506Y-67800828D01*
X198554506Y-67800828D02*
X198768792Y-67800828D01*
X198768792Y-67800828D02*
X198911649Y-67872257D01*
X198911649Y-67872257D02*
X198983078Y-67943685D01*
X198983078Y-67943685D02*
X199054506Y-68086542D01*
X199054506Y-68086542D02*
X199054506Y-68515114D01*
X199054506Y-68515114D02*
X198983078Y-68657971D01*
X198983078Y-68657971D02*
X198911649Y-68729400D01*
X198911649Y-68729400D02*
X198768792Y-68800828D01*
X198768792Y-68800828D02*
X198554506Y-68800828D01*
X199697363Y-68800828D02*
X199697363Y-67800828D01*
X199697363Y-67943685D02*
X199768792Y-67872257D01*
X199768792Y-67872257D02*
X199911649Y-67800828D01*
X199911649Y-67800828D02*
X200125935Y-67800828D01*
X200125935Y-67800828D02*
X200268792Y-67872257D01*
X200268792Y-67872257D02*
X200340221Y-68015114D01*
X200340221Y-68015114D02*
X200340221Y-68800828D01*
X200340221Y-68015114D02*
X200411649Y-67872257D01*
X200411649Y-67872257D02*
X200554506Y-67800828D01*
X200554506Y-67800828D02*
X200768792Y-67800828D01*
X200768792Y-67800828D02*
X200911649Y-67872257D01*
X200911649Y-67872257D02*
X200983078Y-68015114D01*
X200983078Y-68015114D02*
X200983078Y-68800828D01*
X201554506Y-69372257D02*
X201625935Y-69300828D01*
X201625935Y-69300828D02*
X201768792Y-69086542D01*
X201768792Y-69086542D02*
X201840221Y-68943685D01*
X201840221Y-68943685D02*
X201911649Y-68729400D01*
X201911649Y-68729400D02*
X201983078Y-68372257D01*
X201983078Y-68372257D02*
X201983078Y-68086542D01*
X201983078Y-68086542D02*
X201911649Y-67729400D01*
X201911649Y-67729400D02*
X201840221Y-67515114D01*
X201840221Y-67515114D02*
X201768792Y-67372257D01*
X201768792Y-67372257D02*
X201625935Y-67157971D01*
X201625935Y-67157971D02*
X201554506Y-67086542D01*
G36*
X92250276Y-111805286D02*
G01*
X92789096Y-111946575D01*
X93281357Y-112178519D01*
X93734990Y-112505043D01*
X94154919Y-112935816D01*
X94471658Y-113403546D01*
X94737379Y-113997504D01*
X94944875Y-114743269D01*
X95081902Y-115670928D01*
X95131891Y-116814392D01*
X95080155Y-117975531D01*
X94938077Y-118920907D01*
X94722396Y-119684172D01*
X94445357Y-120295135D01*
X94114009Y-120779064D01*
X93677939Y-121220622D01*
X93202006Y-121557120D01*
X92680592Y-121797467D01*
X92104869Y-121944622D01*
X91463363Y-121995394D01*
X90879425Y-121952043D01*
X90376824Y-121828832D01*
X89942011Y-121632008D01*
X89564375Y-121362194D01*
X89248753Y-121024643D01*
X88987155Y-120606407D01*
X88780624Y-120093685D01*
X88635031Y-119468702D01*
X90493108Y-119259874D01*
X90569690Y-119633470D01*
X90690212Y-119911726D01*
X90848482Y-120115334D01*
X91054973Y-120266831D01*
X91303793Y-120360150D01*
X91606856Y-120393161D01*
X91975782Y-120333243D01*
X92308128Y-120152502D01*
X92617411Y-119830792D01*
X92827700Y-119422017D01*
X93015067Y-118698862D01*
X93150471Y-117520865D01*
X92759314Y-117893411D01*
X92333286Y-118152161D01*
X91864322Y-118307744D01*
X91340020Y-118361060D01*
X90769365Y-118304623D01*
X90246455Y-118138484D01*
X89759711Y-117860309D01*
X89301203Y-117458583D01*
X88932523Y-116983606D01*
X88666631Y-116442829D01*
X88501645Y-115823711D01*
X88444454Y-115116294D01*
X90329466Y-115116294D01*
X90379965Y-115739449D01*
X90513286Y-116189793D01*
X90711706Y-116509699D01*
X90991385Y-116758779D01*
X91306043Y-116904518D01*
X91668527Y-116954221D01*
X92018362Y-116906625D01*
X92325201Y-116766589D01*
X92600924Y-116526796D01*
X92801337Y-116219200D01*
X92931859Y-115810351D01*
X92980111Y-115270167D01*
X92926676Y-114678575D01*
X92780316Y-114218155D01*
X92552686Y-113860275D01*
X92242173Y-113573924D01*
X91917117Y-113412322D01*
X91565945Y-113358967D01*
X91229313Y-113405036D01*
X90938428Y-113539864D01*
X90681175Y-113769905D01*
X90500613Y-114066431D01*
X90376984Y-114499474D01*
X90329466Y-115116294D01*
X88444454Y-115116294D01*
X88443911Y-115109577D01*
X88504997Y-114365670D01*
X88679263Y-113724030D01*
X88959811Y-113166446D01*
X89348831Y-112679361D01*
X89829709Y-112277596D01*
X90366115Y-111992180D01*
X90969190Y-111817356D01*
X91654483Y-111756734D01*
X92250276Y-111805286D01*
G37*
G36*
X96370812Y-113671598D02*
G01*
X96370812Y-111873970D01*
X102936060Y-111873970D01*
X102936060Y-113280809D01*
X102430411Y-113844403D01*
X101880577Y-114600244D01*
X101282536Y-115585851D01*
X100767642Y-116606296D01*
X100340901Y-117669259D01*
X100001482Y-118778715D01*
X99748353Y-119916518D01*
X99608783Y-120918379D01*
X99567951Y-121800000D01*
X97716591Y-121800000D01*
X97785981Y-120770493D01*
X97949299Y-119721248D01*
X98210253Y-118648146D01*
X98573883Y-117547121D01*
X99180987Y-116138864D01*
X99901613Y-114850284D01*
X100736043Y-113671598D01*
X96370812Y-113671598D01*
G37*
G36*
X108373365Y-111800119D02*
G01*
X108868916Y-111924642D01*
X109307467Y-112125811D01*
X109697923Y-112404588D01*
X110026519Y-112750047D01*
X110295710Y-113170001D01*
X110505501Y-113676328D01*
X110651081Y-114284647D01*
X108793004Y-114492254D01*
X108716224Y-114116183D01*
X108595626Y-113837785D01*
X108437630Y-113635572D01*
X108231521Y-113484138D01*
X107987031Y-113391517D01*
X107693300Y-113358967D01*
X107315015Y-113419321D01*
X106976885Y-113600545D01*
X106665038Y-113921336D01*
X106453866Y-114330521D01*
X106267371Y-115055625D01*
X106135642Y-116238590D01*
X106524198Y-115861449D01*
X106944957Y-115600654D01*
X107405704Y-115444452D01*
X107918614Y-115391067D01*
X108500030Y-115448074D01*
X109029724Y-115615441D01*
X109519706Y-115894832D01*
X109978192Y-116297208D01*
X110347556Y-116773785D01*
X110613400Y-117313689D01*
X110777998Y-117929004D01*
X110835484Y-118635833D01*
X110774322Y-119387250D01*
X110600187Y-120032743D01*
X110320516Y-120591118D01*
X109933618Y-121076430D01*
X109454855Y-121475668D01*
X108917725Y-121760037D01*
X108310661Y-121934691D01*
X107617585Y-121995394D01*
X107025059Y-121946917D01*
X106488512Y-121805760D01*
X105997630Y-121573848D01*
X105544570Y-121247102D01*
X105124476Y-120815701D01*
X104807413Y-120347555D01*
X104541634Y-119754126D01*
X104334256Y-119010170D01*
X104255496Y-118478297D01*
X106299284Y-118478297D01*
X106353283Y-119075477D01*
X106500822Y-119537537D01*
X106729762Y-119894295D01*
X107042241Y-120179716D01*
X107366359Y-120340320D01*
X107713450Y-120393161D01*
X108049992Y-120347412D01*
X108341975Y-120213380D01*
X108601273Y-119984665D01*
X108783918Y-119689379D01*
X108908720Y-119258669D01*
X108956646Y-118645603D01*
X108905937Y-118016563D01*
X108772286Y-117563507D01*
X108573796Y-117243039D01*
X108294445Y-116993608D01*
X107980002Y-116847678D01*
X107617585Y-116797906D01*
X107267486Y-116845257D01*
X106959361Y-116984696D01*
X106681524Y-117223499D01*
X106479549Y-117529496D01*
X106347970Y-117937556D01*
X106299284Y-118478297D01*
X104255496Y-118478297D01*
X104197403Y-118085992D01*
X104147505Y-116948115D01*
X104199297Y-115782935D01*
X104341484Y-114834873D01*
X104557242Y-114070015D01*
X104834247Y-113458312D01*
X105165387Y-112974284D01*
X105601637Y-112531895D01*
X106077070Y-112195010D01*
X106597228Y-111954569D01*
X107170852Y-111807460D01*
X107809316Y-111756734D01*
X108373365Y-111800119D01*
G37*
G36*
X111924197Y-113671598D02*
G01*
X111924197Y-111873970D01*
X118489445Y-111873970D01*
X118489445Y-113280809D01*
X117983795Y-113844403D01*
X117433961Y-114600244D01*
X116835921Y-115585851D01*
X116321026Y-116606296D01*
X115894286Y-117669259D01*
X115554867Y-118778715D01*
X115301738Y-119916518D01*
X115162168Y-120918379D01*
X115121336Y-121800000D01*
X113269975Y-121800000D01*
X113339366Y-120770493D01*
X113502683Y-119721248D01*
X113763637Y-118648146D01*
X114127267Y-117547121D01*
X114734371Y-116138864D01*
X115454998Y-114850284D01*
X116289427Y-113671598D01*
X111924197Y-113671598D01*
G37*
D11*
X206965239Y-73034819D02*
X206631906Y-72558628D01*
X206393811Y-73034819D02*
X206393811Y-72034819D01*
X206393811Y-72034819D02*
X206774763Y-72034819D01*
X206774763Y-72034819D02*
X206870001Y-72082438D01*
X206870001Y-72082438D02*
X206917620Y-72130057D01*
X206917620Y-72130057D02*
X206965239Y-72225295D01*
X206965239Y-72225295D02*
X206965239Y-72368152D01*
X206965239Y-72368152D02*
X206917620Y-72463390D01*
X206917620Y-72463390D02*
X206870001Y-72511009D01*
X206870001Y-72511009D02*
X206774763Y-72558628D01*
X206774763Y-72558628D02*
X206393811Y-72558628D01*
X207917620Y-73034819D02*
X207346192Y-73034819D01*
X207631906Y-73034819D02*
X207631906Y-72034819D01*
X207631906Y-72034819D02*
X207536668Y-72177676D01*
X207536668Y-72177676D02*
X207441430Y-72272914D01*
X207441430Y-72272914D02*
X207346192Y-72320533D01*
X184975714Y-87074819D02*
X184785238Y-87074819D01*
X184785238Y-87074819D02*
X184690000Y-87122438D01*
X184690000Y-87122438D02*
X184642381Y-87170057D01*
X184642381Y-87170057D02*
X184547143Y-87312914D01*
X184547143Y-87312914D02*
X184499524Y-87503390D01*
X184499524Y-87503390D02*
X184499524Y-87884342D01*
X184499524Y-87884342D02*
X184547143Y-87979580D01*
X184547143Y-87979580D02*
X184594762Y-88027200D01*
X184594762Y-88027200D02*
X184690000Y-88074819D01*
X184690000Y-88074819D02*
X184880476Y-88074819D01*
X184880476Y-88074819D02*
X184975714Y-88027200D01*
X184975714Y-88027200D02*
X185023333Y-87979580D01*
X185023333Y-87979580D02*
X185070952Y-87884342D01*
X185070952Y-87884342D02*
X185070952Y-87646247D01*
X185070952Y-87646247D02*
X185023333Y-87551009D01*
X185023333Y-87551009D02*
X184975714Y-87503390D01*
X184975714Y-87503390D02*
X184880476Y-87455771D01*
X184880476Y-87455771D02*
X184690000Y-87455771D01*
X184690000Y-87455771D02*
X184594762Y-87503390D01*
X184594762Y-87503390D02*
X184547143Y-87551009D01*
X184547143Y-87551009D02*
X184499524Y-87646247D01*
X185975714Y-87074819D02*
X185499524Y-87074819D01*
X185499524Y-87074819D02*
X185451905Y-87551009D01*
X185451905Y-87551009D02*
X185499524Y-87503390D01*
X185499524Y-87503390D02*
X185594762Y-87455771D01*
X185594762Y-87455771D02*
X185832857Y-87455771D01*
X185832857Y-87455771D02*
X185928095Y-87503390D01*
X185928095Y-87503390D02*
X185975714Y-87551009D01*
X185975714Y-87551009D02*
X186023333Y-87646247D01*
X186023333Y-87646247D02*
X186023333Y-87884342D01*
X186023333Y-87884342D02*
X185975714Y-87979580D01*
X185975714Y-87979580D02*
X185928095Y-88027200D01*
X185928095Y-88027200D02*
X185832857Y-88074819D01*
X185832857Y-88074819D02*
X185594762Y-88074819D01*
X185594762Y-88074819D02*
X185499524Y-88027200D01*
X185499524Y-88027200D02*
X185451905Y-87979580D01*
X186404286Y-87170057D02*
X186451905Y-87122438D01*
X186451905Y-87122438D02*
X186547143Y-87074819D01*
X186547143Y-87074819D02*
X186785238Y-87074819D01*
X186785238Y-87074819D02*
X186880476Y-87122438D01*
X186880476Y-87122438D02*
X186928095Y-87170057D01*
X186928095Y-87170057D02*
X186975714Y-87265295D01*
X186975714Y-87265295D02*
X186975714Y-87360533D01*
X186975714Y-87360533D02*
X186928095Y-87503390D01*
X186928095Y-87503390D02*
X186356667Y-88074819D01*
X186356667Y-88074819D02*
X186975714Y-88074819D01*
X187356667Y-87170057D02*
X187404286Y-87122438D01*
X187404286Y-87122438D02*
X187499524Y-87074819D01*
X187499524Y-87074819D02*
X187737619Y-87074819D01*
X187737619Y-87074819D02*
X187832857Y-87122438D01*
X187832857Y-87122438D02*
X187880476Y-87170057D01*
X187880476Y-87170057D02*
X187928095Y-87265295D01*
X187928095Y-87265295D02*
X187928095Y-87360533D01*
X187928095Y-87360533D02*
X187880476Y-87503390D01*
X187880476Y-87503390D02*
X187309048Y-88074819D01*
X187309048Y-88074819D02*
X187928095Y-88074819D01*
X188975715Y-87074819D02*
X189309048Y-88074819D01*
X189309048Y-88074819D02*
X189642381Y-87074819D01*
X189975715Y-88074819D02*
X189975715Y-87074819D01*
X190404286Y-87789104D02*
X190880476Y-87789104D01*
X190309048Y-88074819D02*
X190642381Y-87074819D01*
X190642381Y-87074819D02*
X190975714Y-88074819D01*
X221386725Y-77761904D02*
X221386725Y-77190476D01*
X222386725Y-77476190D02*
X221386725Y-77476190D01*
X222386725Y-76333333D02*
X222386725Y-76904761D01*
X222386725Y-76619047D02*
X221386725Y-76619047D01*
X221386725Y-76619047D02*
X221529582Y-76714285D01*
X221529582Y-76714285D02*
X221624820Y-76809523D01*
X221624820Y-76809523D02*
X221672439Y-76904761D01*
X205848571Y-108924819D02*
X206515237Y-108924819D01*
X206515237Y-108924819D02*
X206086666Y-109924819D01*
X207324761Y-109258152D02*
X207324761Y-109924819D01*
X207086666Y-108877200D02*
X206848571Y-109591485D01*
X206848571Y-109591485D02*
X207467618Y-109591485D01*
X207800952Y-109639104D02*
X208277142Y-109639104D01*
X207705714Y-109924819D02*
X208039047Y-108924819D01*
X208039047Y-108924819D02*
X208372380Y-109924819D01*
X209181904Y-109924819D02*
X208705714Y-109924819D01*
X208705714Y-109924819D02*
X208705714Y-108924819D01*
X209467619Y-109877200D02*
X209610476Y-109924819D01*
X209610476Y-109924819D02*
X209848571Y-109924819D01*
X209848571Y-109924819D02*
X209943809Y-109877200D01*
X209943809Y-109877200D02*
X209991428Y-109829580D01*
X209991428Y-109829580D02*
X210039047Y-109734342D01*
X210039047Y-109734342D02*
X210039047Y-109639104D01*
X210039047Y-109639104D02*
X209991428Y-109543866D01*
X209991428Y-109543866D02*
X209943809Y-109496247D01*
X209943809Y-109496247D02*
X209848571Y-109448628D01*
X209848571Y-109448628D02*
X209658095Y-109401009D01*
X209658095Y-109401009D02*
X209562857Y-109353390D01*
X209562857Y-109353390D02*
X209515238Y-109305771D01*
X209515238Y-109305771D02*
X209467619Y-109210533D01*
X209467619Y-109210533D02*
X209467619Y-109115295D01*
X209467619Y-109115295D02*
X209515238Y-109020057D01*
X209515238Y-109020057D02*
X209562857Y-108972438D01*
X209562857Y-108972438D02*
X209658095Y-108924819D01*
X209658095Y-108924819D02*
X209896190Y-108924819D01*
X209896190Y-108924819D02*
X210039047Y-108972438D01*
X210372381Y-108924819D02*
X211039047Y-108924819D01*
X211039047Y-108924819D02*
X210610476Y-109924819D01*
X211848571Y-109258152D02*
X211848571Y-109924819D01*
X211610476Y-108877200D02*
X211372381Y-109591485D01*
X211372381Y-109591485D02*
X211991428Y-109591485D01*
X232936667Y-79194819D02*
X232936667Y-78194819D01*
X233412857Y-79194819D02*
X233412857Y-78194819D01*
X233412857Y-78194819D02*
X233650952Y-78194819D01*
X233650952Y-78194819D02*
X233793809Y-78242438D01*
X233793809Y-78242438D02*
X233889047Y-78337676D01*
X233889047Y-78337676D02*
X233936666Y-78432914D01*
X233936666Y-78432914D02*
X233984285Y-78623390D01*
X233984285Y-78623390D02*
X233984285Y-78766247D01*
X233984285Y-78766247D02*
X233936666Y-78956723D01*
X233936666Y-78956723D02*
X233889047Y-79051961D01*
X233889047Y-79051961D02*
X233793809Y-79147200D01*
X233793809Y-79147200D02*
X233650952Y-79194819D01*
X233650952Y-79194819D02*
X233412857Y-79194819D01*
X234984285Y-79099580D02*
X234936666Y-79147200D01*
X234936666Y-79147200D02*
X234793809Y-79194819D01*
X234793809Y-79194819D02*
X234698571Y-79194819D01*
X234698571Y-79194819D02*
X234555714Y-79147200D01*
X234555714Y-79147200D02*
X234460476Y-79051961D01*
X234460476Y-79051961D02*
X234412857Y-78956723D01*
X234412857Y-78956723D02*
X234365238Y-78766247D01*
X234365238Y-78766247D02*
X234365238Y-78623390D01*
X234365238Y-78623390D02*
X234412857Y-78432914D01*
X234412857Y-78432914D02*
X234460476Y-78337676D01*
X234460476Y-78337676D02*
X234555714Y-78242438D01*
X234555714Y-78242438D02*
X234698571Y-78194819D01*
X234698571Y-78194819D02*
X234793809Y-78194819D01*
X234793809Y-78194819D02*
X234936666Y-78242438D01*
X234936666Y-78242438D02*
X234984285Y-78290057D01*
X236127143Y-78290057D02*
X236174762Y-78242438D01*
X236174762Y-78242438D02*
X236270000Y-78194819D01*
X236270000Y-78194819D02*
X236508095Y-78194819D01*
X236508095Y-78194819D02*
X236603333Y-78242438D01*
X236603333Y-78242438D02*
X236650952Y-78290057D01*
X236650952Y-78290057D02*
X236698571Y-78385295D01*
X236698571Y-78385295D02*
X236698571Y-78480533D01*
X236698571Y-78480533D02*
X236650952Y-78623390D01*
X236650952Y-78623390D02*
X236079524Y-79194819D01*
X236079524Y-79194819D02*
X236698571Y-79194819D01*
X237317619Y-78194819D02*
X237412857Y-78194819D01*
X237412857Y-78194819D02*
X237508095Y-78242438D01*
X237508095Y-78242438D02*
X237555714Y-78290057D01*
X237555714Y-78290057D02*
X237603333Y-78385295D01*
X237603333Y-78385295D02*
X237650952Y-78575771D01*
X237650952Y-78575771D02*
X237650952Y-78813866D01*
X237650952Y-78813866D02*
X237603333Y-79004342D01*
X237603333Y-79004342D02*
X237555714Y-79099580D01*
X237555714Y-79099580D02*
X237508095Y-79147200D01*
X237508095Y-79147200D02*
X237412857Y-79194819D01*
X237412857Y-79194819D02*
X237317619Y-79194819D01*
X237317619Y-79194819D02*
X237222381Y-79147200D01*
X237222381Y-79147200D02*
X237174762Y-79099580D01*
X237174762Y-79099580D02*
X237127143Y-79004342D01*
X237127143Y-79004342D02*
X237079524Y-78813866D01*
X237079524Y-78813866D02*
X237079524Y-78575771D01*
X237079524Y-78575771D02*
X237127143Y-78385295D01*
X237127143Y-78385295D02*
X237174762Y-78290057D01*
X237174762Y-78290057D02*
X237222381Y-78242438D01*
X237222381Y-78242438D02*
X237317619Y-78194819D01*
X174864482Y-108420518D02*
X175958283Y-108420518D01*
X175958283Y-108420518D02*
X175255125Y-110061219D01*
X177286469Y-108967418D02*
X177286469Y-110061219D01*
X176895826Y-108342390D02*
X176505183Y-109514319D01*
X176505183Y-109514319D02*
X177520855Y-109514319D01*
X178927170Y-110061219D02*
X178145884Y-110061219D01*
X178145884Y-110061219D02*
X178145884Y-108420518D01*
X179395942Y-109983091D02*
X179630328Y-110061219D01*
X179630328Y-110061219D02*
X180020971Y-110061219D01*
X180020971Y-110061219D02*
X180177228Y-109983091D01*
X180177228Y-109983091D02*
X180255357Y-109904962D01*
X180255357Y-109904962D02*
X180333485Y-109748705D01*
X180333485Y-109748705D02*
X180333485Y-109592447D01*
X180333485Y-109592447D02*
X180255357Y-109436190D01*
X180255357Y-109436190D02*
X180177228Y-109358062D01*
X180177228Y-109358062D02*
X180020971Y-109279933D01*
X180020971Y-109279933D02*
X179708456Y-109201804D01*
X179708456Y-109201804D02*
X179552199Y-109123676D01*
X179552199Y-109123676D02*
X179474071Y-109045547D01*
X179474071Y-109045547D02*
X179395942Y-108889290D01*
X179395942Y-108889290D02*
X179395942Y-108733033D01*
X179395942Y-108733033D02*
X179474071Y-108576775D01*
X179474071Y-108576775D02*
X179552199Y-108498647D01*
X179552199Y-108498647D02*
X179708456Y-108420518D01*
X179708456Y-108420518D02*
X180099100Y-108420518D01*
X180099100Y-108420518D02*
X180333485Y-108498647D01*
X180958514Y-108576775D02*
X181036643Y-108498647D01*
X181036643Y-108498647D02*
X181192900Y-108420518D01*
X181192900Y-108420518D02*
X181583543Y-108420518D01*
X181583543Y-108420518D02*
X181739800Y-108498647D01*
X181739800Y-108498647D02*
X181817929Y-108576775D01*
X181817929Y-108576775D02*
X181896057Y-108733033D01*
X181896057Y-108733033D02*
X181896057Y-108889290D01*
X181896057Y-108889290D02*
X181817929Y-109123676D01*
X181817929Y-109123676D02*
X180880385Y-110061219D01*
X180880385Y-110061219D02*
X181896057Y-110061219D01*
X183302372Y-108967418D02*
X183302372Y-110061219D01*
X182911729Y-108342390D02*
X182521086Y-109514319D01*
X182521086Y-109514319D02*
X183536758Y-109514319D01*
X184943073Y-108420518D02*
X184161787Y-108420518D01*
X184161787Y-108420518D02*
X184083658Y-109201804D01*
X184083658Y-109201804D02*
X184161787Y-109123676D01*
X184161787Y-109123676D02*
X184318044Y-109045547D01*
X184318044Y-109045547D02*
X184708687Y-109045547D01*
X184708687Y-109045547D02*
X184864944Y-109123676D01*
X184864944Y-109123676D02*
X184943073Y-109201804D01*
X184943073Y-109201804D02*
X185021201Y-109358062D01*
X185021201Y-109358062D02*
X185021201Y-109748705D01*
X185021201Y-109748705D02*
X184943073Y-109904962D01*
X184943073Y-109904962D02*
X184864944Y-109983091D01*
X184864944Y-109983091D02*
X184708687Y-110061219D01*
X184708687Y-110061219D02*
X184318044Y-110061219D01*
X184318044Y-110061219D02*
X184161787Y-109983091D01*
X184161787Y-109983091D02*
X184083658Y-109904962D01*
X227409580Y-111166666D02*
X227457200Y-111214285D01*
X227457200Y-111214285D02*
X227504819Y-111357142D01*
X227504819Y-111357142D02*
X227504819Y-111452380D01*
X227504819Y-111452380D02*
X227457200Y-111595237D01*
X227457200Y-111595237D02*
X227361961Y-111690475D01*
X227361961Y-111690475D02*
X227266723Y-111738094D01*
X227266723Y-111738094D02*
X227076247Y-111785713D01*
X227076247Y-111785713D02*
X226933390Y-111785713D01*
X226933390Y-111785713D02*
X226742914Y-111738094D01*
X226742914Y-111738094D02*
X226647676Y-111690475D01*
X226647676Y-111690475D02*
X226552438Y-111595237D01*
X226552438Y-111595237D02*
X226504819Y-111452380D01*
X226504819Y-111452380D02*
X226504819Y-111357142D01*
X226504819Y-111357142D02*
X226552438Y-111214285D01*
X226552438Y-111214285D02*
X226600057Y-111166666D01*
X227504819Y-110214285D02*
X227504819Y-110785713D01*
X227504819Y-110499999D02*
X226504819Y-110499999D01*
X226504819Y-110499999D02*
X226647676Y-110595237D01*
X226647676Y-110595237D02*
X226742914Y-110690475D01*
X226742914Y-110690475D02*
X226790533Y-110785713D01*
X164833333Y-98809580D02*
X164785714Y-98857200D01*
X164785714Y-98857200D02*
X164642857Y-98904819D01*
X164642857Y-98904819D02*
X164547619Y-98904819D01*
X164547619Y-98904819D02*
X164404762Y-98857200D01*
X164404762Y-98857200D02*
X164309524Y-98761961D01*
X164309524Y-98761961D02*
X164261905Y-98666723D01*
X164261905Y-98666723D02*
X164214286Y-98476247D01*
X164214286Y-98476247D02*
X164214286Y-98333390D01*
X164214286Y-98333390D02*
X164261905Y-98142914D01*
X164261905Y-98142914D02*
X164309524Y-98047676D01*
X164309524Y-98047676D02*
X164404762Y-97952438D01*
X164404762Y-97952438D02*
X164547619Y-97904819D01*
X164547619Y-97904819D02*
X164642857Y-97904819D01*
X164642857Y-97904819D02*
X164785714Y-97952438D01*
X164785714Y-97952438D02*
X164833333Y-98000057D01*
X165214286Y-98000057D02*
X165261905Y-97952438D01*
X165261905Y-97952438D02*
X165357143Y-97904819D01*
X165357143Y-97904819D02*
X165595238Y-97904819D01*
X165595238Y-97904819D02*
X165690476Y-97952438D01*
X165690476Y-97952438D02*
X165738095Y-98000057D01*
X165738095Y-98000057D02*
X165785714Y-98095295D01*
X165785714Y-98095295D02*
X165785714Y-98190533D01*
X165785714Y-98190533D02*
X165738095Y-98333390D01*
X165738095Y-98333390D02*
X165166667Y-98904819D01*
X165166667Y-98904819D02*
X165785714Y-98904819D01*
D12*
X205211906Y-73580000D02*
X209051906Y-73580000D01*
X205211906Y-75420000D02*
X209051906Y-75420000D01*
D13*
X162290000Y-78730000D02*
X213090000Y-78730000D01*
X162290000Y-96510000D02*
X162290000Y-78730000D01*
X162290000Y-96510000D02*
X213090000Y-96510000D01*
X213090000Y-78730000D02*
X213090000Y-96510000D01*
D14*
X211920000Y-78080000D02*
G75*
G02*
X211720000Y-78080000I-100000J0D01*
G01*
X211720000Y-78080000D02*
G75*
G02*
X211920000Y-78080000I100000J0D01*
G01*
D12*
X227341906Y-78800000D02*
X227341906Y-75200000D01*
X222891906Y-77000000D02*
G75*
G02*
X224393099Y-74643600I2600000J0D01*
G01*
X224393099Y-79356400D02*
G75*
G02*
X222891906Y-77000000I1098807J2356400D01*
G01*
X226614701Y-74675816D02*
G75*
G02*
X227341906Y-75200000I-1122795J-2324184D01*
G01*
X227341906Y-78800000D02*
G75*
G02*
X226614701Y-79324184I-1850000J1800000D01*
G01*
D13*
X199075000Y-106170000D02*
X200395000Y-106170000D01*
X199075000Y-112770000D02*
X199075000Y-106170000D01*
X200395000Y-112770000D02*
X199075000Y-112770000D01*
X217445000Y-106170000D02*
X218765000Y-106170000D01*
X218765000Y-106170000D02*
X218765000Y-112770000D01*
X218765000Y-112770000D02*
X217445000Y-112770000D01*
D14*
X216640000Y-104415000D02*
G75*
G02*
X216440000Y-104415000I-100000J0D01*
G01*
X216440000Y-104415000D02*
G75*
G02*
X216640000Y-104415000I100000J0D01*
G01*
D12*
X229320000Y-84340000D02*
X229320000Y-85340000D01*
X229320000Y-85340000D02*
X230320000Y-84840000D01*
X230320000Y-84840000D02*
X229320000Y-84340000D01*
X230710000Y-79630000D02*
X239830000Y-79630000D01*
X230710000Y-94220000D02*
X232020000Y-94220000D01*
X230710000Y-112910000D02*
X230710000Y-79630000D01*
X232020000Y-80930000D02*
X238520000Y-80930000D01*
X232020000Y-94220000D02*
X232020000Y-80930000D01*
X232020000Y-98320000D02*
X230710000Y-98320000D01*
X232020000Y-98320000D02*
X232020000Y-98320000D01*
X232020000Y-111610000D02*
X232020000Y-98320000D01*
X238520000Y-80930000D02*
X238520000Y-111610000D01*
X238520000Y-111610000D02*
X232020000Y-111610000D01*
X239830000Y-79630000D02*
X239830000Y-112910000D01*
X239830000Y-112910000D02*
X230710000Y-112910000D01*
D15*
X166519906Y-106008000D02*
X166519906Y-112612000D01*
X166519906Y-112612000D02*
X167332706Y-112612000D01*
X167332706Y-106008000D02*
X166519906Y-106008000D01*
X192631106Y-112612000D02*
X193443906Y-112612000D01*
X193443906Y-106008000D02*
X192732706Y-106008000D01*
X193443906Y-109005200D02*
X193443906Y-106008000D01*
X193443906Y-109614800D02*
X193443906Y-109005200D01*
X193443906Y-112612000D02*
X193443906Y-109614800D01*
D16*
X193443906Y-109614800D02*
G75*
G02*
X193443906Y-109005200I0J304800D01*
G01*
D12*
X224080000Y-110371000D02*
X224080000Y-111629000D01*
X225920000Y-110371000D02*
X225920000Y-111629000D01*
X164371000Y-99580000D02*
X165629000Y-99580000D01*
X164371000Y-101420000D02*
X165629000Y-101420000D01*
D17*
G36*
X121188191Y-86671518D02*
G01*
X121360259Y-86857728D01*
X121363839Y-87193944D01*
X121249631Y-87789608D01*
X121041418Y-88575625D01*
X120762980Y-89482899D01*
X120438099Y-90442335D01*
X120090554Y-91384836D01*
X119744128Y-92241307D01*
X119422602Y-92942654D01*
X119149756Y-93419779D01*
X119064969Y-93526656D01*
X118647344Y-93820559D01*
X118217160Y-93895450D01*
X117957277Y-93779343D01*
X117847860Y-93436876D01*
X117891748Y-92811297D01*
X118080290Y-91938483D01*
X118404838Y-90854311D01*
X118856744Y-89594656D01*
X119135950Y-88890141D01*
X119566618Y-87900241D01*
X119934417Y-87214974D01*
X120268809Y-86793345D01*
X120599256Y-86594363D01*
X120807231Y-86564789D01*
X121188191Y-86671518D01*
G37*
G36*
X128212676Y-90589437D02*
G01*
X128212676Y-110712676D01*
X108089437Y-110712676D01*
X87966198Y-110712676D01*
X87966198Y-94802556D01*
X89577310Y-94802556D01*
X89735852Y-95999058D01*
X90192286Y-97033758D01*
X90913027Y-97879402D01*
X91864487Y-98508740D01*
X93013080Y-98894519D01*
X94325220Y-99009488D01*
X94735604Y-98987946D01*
X95484972Y-98888408D01*
X96216360Y-98731656D01*
X96613773Y-98608383D01*
X97270452Y-98401399D01*
X97855538Y-98348593D01*
X98497636Y-98455640D01*
X99324648Y-98727950D01*
X100601255Y-99019856D01*
X101996281Y-99013443D01*
X103436356Y-98712388D01*
X104057075Y-98490878D01*
X105163318Y-98044046D01*
X106179195Y-98520263D01*
X106782581Y-98772456D01*
X107345954Y-98918111D01*
X108010586Y-98983751D01*
X108715493Y-98996479D01*
X110094095Y-98903010D01*
X111280888Y-98599188D01*
X112395960Y-98049889D01*
X112762982Y-97812633D01*
X113206404Y-97521750D01*
X113464595Y-97418071D01*
X113647038Y-97486005D01*
X113819888Y-97662121D01*
X114415554Y-98129085D01*
X115260117Y-98539743D01*
X116244963Y-98850795D01*
X117212742Y-99014703D01*
X118763318Y-99010737D01*
X120175559Y-98698251D01*
X121457533Y-98070851D01*
X122617310Y-97122145D01*
X123662957Y-95845742D01*
X124602543Y-94235250D01*
X125329365Y-92584687D01*
X125985143Y-90661718D01*
X126406433Y-88873926D01*
X126589216Y-87253146D01*
X126529475Y-85831215D01*
X126304600Y-84858933D01*
X125822300Y-83923274D01*
X125082776Y-83062659D01*
X124185791Y-82375378D01*
X123418142Y-82015161D01*
X122002058Y-81721915D01*
X120497596Y-81725715D01*
X118999666Y-82016382D01*
X117603181Y-82583737D01*
X117478299Y-82652185D01*
X116794382Y-83036568D01*
X116322282Y-82665213D01*
X115458654Y-82176972D01*
X114361506Y-81843653D01*
X113123182Y-81672542D01*
X111836023Y-81670922D01*
X110592370Y-81846077D01*
X109641326Y-82138215D01*
X108510116Y-82598698D01*
X107672874Y-82164322D01*
X106633504Y-81792146D01*
X105401354Y-81615775D01*
X104080878Y-81631933D01*
X102776532Y-81837343D01*
X101592769Y-82228730D01*
X101311236Y-82363862D01*
X100804181Y-82618422D01*
X100502970Y-82716831D01*
X100296242Y-82668356D01*
X100072635Y-82482266D01*
X100057605Y-82468195D01*
X99409591Y-82032127D01*
X98577418Y-81796169D01*
X97658426Y-81736209D01*
X96544402Y-81821361D01*
X95589611Y-82096592D01*
X94750684Y-82595117D01*
X93984252Y-83350154D01*
X93246946Y-84394918D01*
X92554705Y-85645193D01*
X91612570Y-87621371D01*
X90832073Y-89513350D01*
X90227356Y-91277634D01*
X89812561Y-92870723D01*
X89601832Y-94249122D01*
X89577310Y-94802556D01*
X87966198Y-94802556D01*
X87966198Y-90589437D01*
X87966198Y-70466198D01*
X108089437Y-70466198D01*
X128212676Y-70466198D01*
X128212676Y-90589437D01*
G37*
G36*
X106805178Y-82891957D02*
G01*
X107643947Y-83321164D01*
X107793673Y-83438855D01*
X108319105Y-83880977D01*
X109545820Y-83299996D01*
X110170198Y-83020296D01*
X110685295Y-82847893D01*
X111219387Y-82757318D01*
X111900750Y-82723100D01*
X112471831Y-82719014D01*
X113348395Y-82734135D01*
X113980874Y-82791943D01*
X114482124Y-82911104D01*
X114964999Y-83110287D01*
X115030808Y-83142293D01*
X115606877Y-83487389D01*
X116097572Y-83885090D01*
X116263213Y-84069707D01*
X116635937Y-84573843D01*
X117281701Y-84057050D01*
X118375533Y-83338708D01*
X119534382Y-82912821D01*
X120857345Y-82745720D01*
X121157049Y-82740374D01*
X122458178Y-82843992D01*
X123509942Y-83174011D01*
X124353999Y-83748773D01*
X124902332Y-84389375D01*
X125141687Y-84752605D01*
X125296201Y-85072699D01*
X125383591Y-85440543D01*
X125421576Y-85947018D01*
X125427873Y-86683008D01*
X125425407Y-87072474D01*
X125323519Y-88668606D01*
X125027815Y-90228902D01*
X124515142Y-91841701D01*
X123762345Y-93595342D01*
X123659758Y-93809155D01*
X122792844Y-95314189D01*
X121810959Y-96484388D01*
X120709166Y-97325322D01*
X120390207Y-97496780D01*
X119902306Y-97706891D01*
X119406387Y-97835037D01*
X118789900Y-97899902D01*
X117940296Y-97920170D01*
X117838028Y-97920464D01*
X116993944Y-97909999D01*
X116399845Y-97862532D01*
X115948413Y-97758881D01*
X115532333Y-97579862D01*
X115333803Y-97472833D01*
X114754134Y-97059625D01*
X114241352Y-96548988D01*
X114093649Y-96350562D01*
X113658424Y-95678699D01*
X113020410Y-96297002D01*
X112487645Y-96734388D01*
X111813516Y-97185413D01*
X111398592Y-97419273D01*
X110882994Y-97662942D01*
X110420803Y-97813085D01*
X109895218Y-97891641D01*
X109189443Y-97920547D01*
X108715493Y-97923240D01*
X107707633Y-97893905D01*
X106957747Y-97786399D01*
X106369422Y-97571470D01*
X105846246Y-97219866D01*
X105560025Y-96965845D01*
X105177092Y-96604148D01*
X104578498Y-97045777D01*
X103559445Y-97599824D01*
X102381872Y-97920193D01*
X101141200Y-98003894D01*
X99932850Y-97847940D01*
X98852242Y-97449340D01*
X98498678Y-97236188D01*
X97893662Y-96821186D01*
X96961291Y-97340781D01*
X96031734Y-97717298D01*
X94957896Y-97932521D01*
X93875323Y-97972894D01*
X92919560Y-97824861D01*
X92734097Y-97763552D01*
X91784907Y-97231102D01*
X91058512Y-96449653D01*
X90879479Y-96147245D01*
X90676222Y-95424563D01*
X90669302Y-94868901D01*
X91812405Y-94868901D01*
X91908742Y-95522413D01*
X92187199Y-96015347D01*
X92655891Y-96401205D01*
X92671363Y-96410703D01*
X93352269Y-96664839D01*
X94223904Y-96767474D01*
X95152986Y-96718758D01*
X96006232Y-96518842D01*
X96275954Y-96406617D01*
X96932506Y-95956414D01*
X97406404Y-95371765D01*
X97513493Y-95104676D01*
X98114975Y-95104676D01*
X98719812Y-95761213D01*
X99571376Y-96438023D01*
X100573839Y-96800135D01*
X101700371Y-96843332D01*
X102924144Y-96563394D01*
X103188708Y-96464067D01*
X103991574Y-95993093D01*
X104533590Y-95351804D01*
X104772553Y-94594256D01*
X104780282Y-94425611D01*
X104700811Y-93859263D01*
X104517310Y-93599658D01*
X105511981Y-93599658D01*
X105586416Y-94634091D01*
X105809081Y-95316863D01*
X106381273Y-96071650D01*
X107173550Y-96582269D01*
X108136046Y-96839305D01*
X109218893Y-96833341D01*
X110372224Y-96554961D01*
X110991521Y-96295438D01*
X112036148Y-95602105D01*
X112939000Y-94625844D01*
X113349616Y-93941327D01*
X114637153Y-93941327D01*
X114704725Y-94680588D01*
X114925574Y-95304943D01*
X114931616Y-95316863D01*
X115496395Y-96053503D01*
X116289071Y-96559744D01*
X117253981Y-96823309D01*
X118335463Y-96831921D01*
X119477854Y-96573300D01*
X119895071Y-96411652D01*
X120431949Y-96093826D01*
X121013901Y-95623261D01*
X121305703Y-95330752D01*
X121808861Y-94654903D01*
X122354702Y-93725782D01*
X122897870Y-92636860D01*
X123393007Y-91481608D01*
X123794756Y-90353500D01*
X123910187Y-89963381D01*
X124276406Y-88359785D01*
X124411445Y-87020255D01*
X124313639Y-85934437D01*
X123981320Y-85091975D01*
X123412820Y-84482514D01*
X122988352Y-84238075D01*
X121890023Y-83924624D01*
X120709899Y-83903354D01*
X119549299Y-84159118D01*
X118509540Y-84676765D01*
X118139506Y-84963104D01*
X117409208Y-85786548D01*
X116707688Y-86931698D01*
X116051488Y-88362722D01*
X115457147Y-90043789D01*
X114964455Y-91841550D01*
X114723512Y-93018026D01*
X114637153Y-93941327D01*
X113349616Y-93941327D01*
X113657954Y-93427312D01*
X114150890Y-92067166D01*
X114256760Y-91593298D01*
X114331921Y-90639853D01*
X114147176Y-89928706D01*
X113699773Y-89453447D01*
X113257230Y-89265321D01*
X112687942Y-89165488D01*
X112178931Y-89165442D01*
X112124983Y-89174755D01*
X111593613Y-89284772D01*
X111258888Y-89353348D01*
X110855381Y-89589893D01*
X110483434Y-90057157D01*
X110222523Y-90631336D01*
X110147148Y-91085173D01*
X110269211Y-91541675D01*
X110593662Y-91784660D01*
X110926561Y-91990946D01*
X111013633Y-92251079D01*
X110862348Y-92653415D01*
X110692002Y-92948091D01*
X110177287Y-93560248D01*
X109593843Y-93836035D01*
X109122027Y-93814936D01*
X108867937Y-93728089D01*
X108743529Y-93569082D01*
X108718501Y-93242469D01*
X108760449Y-92675983D01*
X108880805Y-92021043D01*
X109124337Y-91147716D01*
X109453997Y-90157474D01*
X109832735Y-89151792D01*
X110223506Y-88232143D01*
X110589259Y-87500001D01*
X110741246Y-87250628D01*
X111113724Y-86821240D01*
X111562052Y-86631691D01*
X111824536Y-86597653D01*
X112507282Y-86541080D01*
X112383352Y-87274614D01*
X112346979Y-87913158D01*
X112529471Y-88303686D01*
X112973768Y-88493419D01*
X113527172Y-88532395D01*
X114410005Y-88388298D01*
X115073816Y-87966729D01*
X115504057Y-87283766D01*
X115686179Y-86355489D01*
X115691550Y-86140213D01*
X115554621Y-85298872D01*
X115138711Y-84657836D01*
X114436135Y-84212005D01*
X113439207Y-83956277D01*
X112292958Y-83884435D01*
X111003115Y-84042429D01*
X109844961Y-84518914D01*
X108810197Y-85320275D01*
X107890521Y-86452896D01*
X107097732Y-87880079D01*
X106434680Y-89455441D01*
X105944068Y-90964428D01*
X105633850Y-92361135D01*
X105511981Y-93599658D01*
X104517310Y-93599658D01*
X104433679Y-93481342D01*
X103935808Y-93268268D01*
X103164122Y-93196459D01*
X102561227Y-93210891D01*
X101933690Y-93231652D01*
X101482408Y-93225533D01*
X101290152Y-93194166D01*
X101289542Y-93185797D01*
X101366205Y-92970867D01*
X101493118Y-92538849D01*
X101549333Y-92333451D01*
X101753226Y-91573240D01*
X102828454Y-91573240D01*
X103587034Y-91520261D01*
X104230592Y-91380212D01*
X104445510Y-91293050D01*
X104919988Y-90890317D01*
X105275794Y-90304552D01*
X105442717Y-89677575D01*
X105419434Y-89325818D01*
X105162934Y-88969767D01*
X104660015Y-88704189D01*
X104018411Y-88568967D01*
X103428646Y-88588818D01*
X103033033Y-88635535D01*
X102911602Y-88552327D01*
X102987072Y-88276036D01*
X103000976Y-88239293D01*
X103223302Y-87696323D01*
X103444266Y-87366731D01*
X103758438Y-87191092D01*
X104260388Y-87109981D01*
X104856358Y-87073440D01*
X105906866Y-86942201D01*
X106661589Y-86658659D01*
X107156361Y-86204712D01*
X107354922Y-85811426D01*
X107453637Y-85123977D01*
X107233454Y-84563698D01*
X106716313Y-84149067D01*
X105924150Y-83898561D01*
X105000846Y-83828652D01*
X103693283Y-83931424D01*
X102643174Y-84230049D01*
X101797837Y-84742059D01*
X101532808Y-84982686D01*
X100916877Y-85751141D01*
X100296962Y-86796227D01*
X99703873Y-88038523D01*
X99168423Y-89398608D01*
X98721422Y-90797064D01*
X98393684Y-92154470D01*
X98216019Y-93391406D01*
X98204165Y-93562549D01*
X98114975Y-95104676D01*
X97513493Y-95104676D01*
X97662771Y-94732365D01*
X97666735Y-94117909D01*
X97462522Y-93695112D01*
X97171429Y-93430170D01*
X96776820Y-93304545D01*
X96212159Y-93274307D01*
X95696204Y-93264759D01*
X95365729Y-93242233D01*
X95300554Y-93224243D01*
X95375279Y-93054517D01*
X95576945Y-92636439D01*
X95871034Y-92040897D01*
X96090032Y-91602903D01*
X96721892Y-90302035D01*
X97302171Y-89025780D01*
X97807586Y-87831642D01*
X98214852Y-86777129D01*
X98500686Y-85919745D01*
X98641802Y-85316998D01*
X98644795Y-85293285D01*
X98684972Y-84764764D01*
X98614939Y-84454301D01*
X98391178Y-84228477D01*
X98270613Y-84146134D01*
X97654201Y-83937213D01*
X96925326Y-83979550D01*
X96212011Y-84259548D01*
X96024465Y-84384659D01*
X95641392Y-84796204D01*
X95180214Y-85491648D01*
X94667609Y-86412838D01*
X94130256Y-87501615D01*
X93594834Y-88699825D01*
X93088022Y-89949310D01*
X92636499Y-91191915D01*
X92266944Y-92369484D01*
X92133622Y-92866145D01*
X91890070Y-94001312D01*
X91812405Y-94868901D01*
X90669302Y-94868901D01*
X90663937Y-94438057D01*
X90834544Y-93221161D01*
X91179966Y-91807308D01*
X91692124Y-90229933D01*
X92362939Y-88522468D01*
X93131307Y-86827970D01*
X93797959Y-85516941D01*
X94401571Y-84512276D01*
X94981935Y-83777688D01*
X95578841Y-83276892D01*
X96232080Y-82973602D01*
X96981443Y-82831531D01*
X97539053Y-82808451D01*
X98541243Y-82914486D01*
X99293091Y-83221867D01*
X99770643Y-83714511D01*
X99949942Y-84376334D01*
X99950705Y-84427595D01*
X99977624Y-84619831D01*
X100095711Y-84619582D01*
X100360963Y-84401148D01*
X100672613Y-84096236D01*
X101466027Y-83468784D01*
X102424809Y-83035006D01*
X103614170Y-82770375D01*
X104422536Y-82685652D01*
X105743107Y-82682741D01*
X106805178Y-82891957D01*
G37*
M02*
