G04 #@! TF.GenerationSoftware,KiCad,Pcbnew,8.99.0-unknown-5c22162d85~178~ubuntu22.04.1*
G04 #@! TF.CreationDate,2024-07-16T15:39:19+01:00*
G04 #@! TF.ProjectId,Lego9767,4c65676f-3937-4363-972e-6b696361645f,1.0.1*
G04 #@! TF.SameCoordinates,Original*
G04 #@! TF.FileFunction,Copper,L1,Top*
G04 #@! TF.FilePolarity,Positive*
%FSLAX46Y46*%
G04 Gerber Fmt 4.6, Leading zero omitted, Abs format (unit mm)*
G04 Created by KiCad (PCBNEW 8.99.0-unknown-5c22162d85~178~ubuntu22.04.1) date 2024-07-16 15:39:19*
%MOMM*%
%LPD*%
G01*
G04 APERTURE LIST*
G04 Aperture macros list*
%AMRoundRect*
0 Rectangle with rounded corners*
0 $1 Rounding radius*
0 $2 $3 $4 $5 $6 $7 $8 $9 X,Y pos of 4 corners*
0 Add a 4 corners polygon primitive as box body*
4,1,4,$2,$3,$4,$5,$6,$7,$8,$9,$2,$3,0*
0 Add four circle primitives for the rounded corners*
1,1,$1+$1,$2,$3*
1,1,$1+$1,$4,$5*
1,1,$1+$1,$6,$7*
1,1,$1+$1,$8,$9*
0 Add four rect primitives between the rounded corners*
20,1,$1+$1,$2,$3,$4,$5,0*
20,1,$1+$1,$4,$5,$6,$7,0*
20,1,$1+$1,$6,$7,$8,$9,0*
20,1,$1+$1,$8,$9,$2,$3,0*%
G04 Aperture macros list end*
G04 #@! TA.AperFunction,SMDPad,CuDef*
%ADD10R,1.524000X6.350000*%
G04 #@! TD*
G04 #@! TA.AperFunction,ComponentPad*
%ADD11C,1.400000*%
G04 #@! TD*
G04 #@! TA.AperFunction,ComponentPad*
%ADD12O,1.400000X1.400000*%
G04 #@! TD*
G04 #@! TA.AperFunction,ComponentPad*
%ADD13C,1.575000*%
G04 #@! TD*
G04 #@! TA.AperFunction,ComponentPad*
%ADD14R,1.575000X1.575000*%
G04 #@! TD*
G04 #@! TA.AperFunction,ComponentPad*
%ADD15R,1.500000X1.500000*%
G04 #@! TD*
G04 #@! TA.AperFunction,ComponentPad*
%ADD16C,1.500000*%
G04 #@! TD*
G04 #@! TA.AperFunction,ComponentPad*
%ADD17R,1.170000X1.170000*%
G04 #@! TD*
G04 #@! TA.AperFunction,ComponentPad*
%ADD18C,1.170000*%
G04 #@! TD*
G04 #@! TA.AperFunction,ComponentPad*
%ADD19RoundRect,0.250000X-0.600000X-0.600000X0.600000X-0.600000X0.600000X0.600000X-0.600000X0.600000X0*%
G04 #@! TD*
G04 #@! TA.AperFunction,ComponentPad*
%ADD20C,1.700000*%
G04 #@! TD*
G04 #@! TA.AperFunction,ComponentPad*
%ADD21R,1.676400X1.676400*%
G04 #@! TD*
G04 #@! TA.AperFunction,ComponentPad*
%ADD22C,1.676400*%
G04 #@! TD*
G04 #@! TA.AperFunction,ComponentPad*
%ADD23C,1.600000*%
G04 #@! TD*
G04 #@! TA.AperFunction,Conductor*
%ADD24C,0.250000*%
G04 #@! TD*
G04 #@! TA.AperFunction,Conductor*
%ADD25C,0.400000*%
G04 #@! TD*
G04 #@! TA.AperFunction,Conductor*
%ADD26C,0.800000*%
G04 #@! TD*
G04 #@! TA.AperFunction,Conductor*
%ADD27C,0.500000*%
G04 #@! TD*
G04 APERTURE END LIST*
D10*
X170180000Y-128397000D03*
X172720000Y-128397000D03*
X175260000Y-128397000D03*
X177800000Y-128397000D03*
X180340000Y-128397000D03*
X182880000Y-128397000D03*
X185420000Y-128397000D03*
X187960000Y-128397000D03*
X190500000Y-128397000D03*
X193040000Y-128397000D03*
X195580000Y-128397000D03*
X198120000Y-128397000D03*
X200660000Y-128397000D03*
X203200000Y-128397000D03*
X205740000Y-128397000D03*
X208280000Y-128397000D03*
X210820000Y-128397000D03*
X213360000Y-128397000D03*
X215900000Y-128397000D03*
X218440000Y-128397000D03*
X220980000Y-128397000D03*
X223520000Y-128397000D03*
X226060000Y-128397000D03*
X228600000Y-128397000D03*
X231140000Y-128397000D03*
D11*
X204591906Y-74500000D03*
D12*
X209671906Y-74500000D03*
D13*
X163560000Y-80000000D03*
X173720000Y-95240000D03*
X206740000Y-80000000D03*
X204200000Y-80000000D03*
X201660000Y-80000000D03*
X199120000Y-80000000D03*
X196580000Y-80000000D03*
X194040000Y-80000000D03*
X191500000Y-80000000D03*
X163560000Y-95240000D03*
X166100000Y-95240000D03*
X168640000Y-95240000D03*
X196580000Y-95240000D03*
X199120000Y-95240000D03*
X201660000Y-95240000D03*
X204200000Y-95240000D03*
X206740000Y-95240000D03*
X209280000Y-95240000D03*
X211820000Y-95240000D03*
X168640000Y-80000000D03*
X166100000Y-80000000D03*
X171180000Y-95240000D03*
X194040000Y-95240000D03*
X191500000Y-95240000D03*
X188960000Y-95240000D03*
X186420000Y-95240000D03*
X183880000Y-95240000D03*
X181340000Y-95240000D03*
X178800000Y-95240000D03*
X176260000Y-95240000D03*
X209280000Y-80000000D03*
X188960000Y-80000000D03*
X186420000Y-80000000D03*
X183880000Y-80000000D03*
X181340000Y-80000000D03*
X178800000Y-80000000D03*
X176260000Y-80000000D03*
X173720000Y-80000000D03*
X171180000Y-80000000D03*
D14*
X211820000Y-80000000D03*
D15*
X225491906Y-79540000D03*
D16*
X225491906Y-77000000D03*
X225491906Y-74460000D03*
D17*
X216540000Y-105500000D03*
D18*
X214000000Y-105500000D03*
X211460000Y-105500000D03*
X208920000Y-105500000D03*
X206380000Y-105500000D03*
X203840000Y-105500000D03*
X201300000Y-105500000D03*
X201300000Y-113440000D03*
X203840000Y-113440000D03*
X206380000Y-113440000D03*
X208920000Y-113440000D03*
X211460000Y-113440000D03*
X214000000Y-113440000D03*
X216540000Y-113440000D03*
D19*
X234000000Y-84840000D03*
D20*
X236540000Y-84840000D03*
X234000000Y-87380000D03*
X236540000Y-87380000D03*
X234000000Y-89920000D03*
X236540000Y-89920000D03*
X234000000Y-92460000D03*
X236540000Y-92460000D03*
X234000000Y-95000000D03*
X236540000Y-95000000D03*
X234000000Y-97540000D03*
X236540000Y-97540000D03*
X234000000Y-100080000D03*
X236540000Y-100080000D03*
X234000000Y-102620000D03*
X236540000Y-102620000D03*
X234000000Y-105160000D03*
X236540000Y-105160000D03*
X234000000Y-107700000D03*
X236540000Y-107700000D03*
D21*
X191411906Y-105500000D03*
D22*
X188871906Y-105500000D03*
X186331906Y-105500000D03*
X183791906Y-105500000D03*
X181251906Y-105500000D03*
X178711906Y-105500000D03*
X176171906Y-105500000D03*
X173631906Y-105500000D03*
X171091906Y-105500000D03*
X168551906Y-105500000D03*
X168551906Y-113120000D03*
X171091906Y-113120000D03*
X173631906Y-113120000D03*
X176171906Y-113120000D03*
X178711906Y-113120000D03*
X181251906Y-113120000D03*
X183791906Y-113120000D03*
X186331906Y-113120000D03*
X188871906Y-113120000D03*
X191411906Y-113120000D03*
D23*
X225000000Y-109750000D03*
X225000000Y-112250000D03*
X163750000Y-100500000D03*
X166250000Y-100500000D03*
D24*
X173720000Y-95240000D02*
X173720000Y-97720000D01*
X197000000Y-100000000D02*
X197000000Y-104500000D01*
X174500000Y-98500000D02*
X195500000Y-98500000D01*
X173720000Y-97720000D02*
X174500000Y-98500000D01*
X203840000Y-111340000D02*
X203840000Y-113440000D01*
X197000000Y-104500000D02*
X203840000Y-111340000D01*
X195500000Y-98500000D02*
X197000000Y-100000000D01*
X167500000Y-92000000D02*
X161000000Y-92000000D01*
X159500000Y-93500000D02*
X159500000Y-105500000D01*
X159500000Y-105500000D02*
X162500000Y-108500000D01*
X168640000Y-95240000D02*
X168640000Y-93140000D01*
X161000000Y-92000000D02*
X159500000Y-93500000D01*
X168640000Y-93140000D02*
X167500000Y-92000000D01*
X184251906Y-108500000D02*
X188871906Y-113120000D01*
X162500000Y-108500000D02*
X184251906Y-108500000D01*
D25*
X170180000Y-125327070D02*
X170180000Y-128397000D01*
X172720000Y-123720000D02*
X171500000Y-122500000D01*
X147500000Y-91000000D02*
X151500000Y-87000000D01*
X171500000Y-122500000D02*
X156000000Y-122500000D01*
X156000000Y-122500000D02*
X147500000Y-114000000D01*
X151500000Y-87000000D02*
X203000000Y-87000000D01*
X203000000Y-87000000D02*
X206740000Y-90740000D01*
X206740000Y-90740000D02*
X206740000Y-95240000D01*
X172720000Y-128397000D02*
X172720000Y-123720000D01*
X147500000Y-114000000D02*
X147500000Y-91000000D01*
X152000000Y-88000000D02*
X201000000Y-88000000D01*
X204200000Y-91200000D02*
X204200000Y-95240000D01*
X175260000Y-128397000D02*
X175260000Y-122760000D01*
X156500000Y-121500000D02*
X148500000Y-113500000D01*
X148500000Y-91500000D02*
X152000000Y-88000000D01*
X201000000Y-88000000D02*
X204200000Y-91200000D01*
X175260000Y-122760000D02*
X174000000Y-121500000D01*
X174000000Y-121500000D02*
X156500000Y-121500000D01*
X148500000Y-113500000D02*
X148500000Y-91500000D01*
X157000000Y-120500000D02*
X149500000Y-113000000D01*
X152500000Y-89000000D02*
X200500000Y-89000000D01*
X175000000Y-120500000D02*
X157000000Y-120500000D01*
X201660000Y-90160000D02*
X201660000Y-95240000D01*
X177800000Y-123300000D02*
X175000000Y-120500000D01*
X200500000Y-89000000D02*
X201660000Y-90160000D01*
X149500000Y-113000000D02*
X149500000Y-92000000D01*
X149500000Y-92000000D02*
X152500000Y-89000000D01*
X177800000Y-128397000D02*
X177800000Y-123300000D01*
X199120000Y-92120000D02*
X199120000Y-95240000D01*
X158000000Y-119500000D02*
X151000000Y-112500000D01*
X197500000Y-90500000D02*
X199120000Y-92120000D01*
X151000000Y-112500000D02*
X151000000Y-92500000D01*
X180340000Y-121340000D02*
X178500000Y-119500000D01*
X180340000Y-128397000D02*
X180340000Y-121340000D01*
X153000000Y-90500000D02*
X197500000Y-90500000D01*
X151000000Y-92500000D02*
X153000000Y-90500000D01*
X178500000Y-119500000D02*
X158000000Y-119500000D01*
X182880000Y-126170000D02*
X182880000Y-128397000D01*
X185420000Y-125770000D02*
X185420000Y-128397000D01*
X187960000Y-125770000D02*
X187960000Y-128397000D01*
X190500000Y-125770000D02*
X190500000Y-128397000D01*
D24*
X179500000Y-103000000D02*
X191000000Y-103000000D01*
X196000000Y-119000000D02*
X198000000Y-121000000D01*
X176000000Y-99500000D02*
X179500000Y-103000000D01*
X191411906Y-103411906D02*
X191411906Y-105500000D01*
X191000000Y-103000000D02*
X191411906Y-103411906D01*
X191411906Y-105500000D02*
X194000000Y-105500000D01*
X170360000Y-99500000D02*
X176000000Y-99500000D01*
X194000000Y-105500000D02*
X196000000Y-107500000D01*
X196000000Y-107500000D02*
X196000000Y-119000000D01*
X211500000Y-121000000D02*
X213360000Y-122860000D01*
X213360000Y-122860000D02*
X213360000Y-128397000D01*
X166100000Y-95240000D02*
X170360000Y-99500000D01*
X198000000Y-121000000D02*
X211500000Y-121000000D01*
D26*
X234000000Y-97540000D02*
X234000000Y-95000000D01*
X168551906Y-105500000D02*
X168551906Y-102801906D01*
X225000000Y-109750000D02*
X231950000Y-109750000D01*
X168551906Y-102801906D02*
X166250000Y-100500000D01*
X234000000Y-102620000D02*
X234000000Y-100080000D01*
X234000000Y-92460000D02*
X234000000Y-89920000D01*
X234000000Y-100080000D02*
X234000000Y-97540000D01*
X234000000Y-95000000D02*
X234000000Y-92460000D01*
X234000000Y-105160000D02*
X234000000Y-102620000D01*
X231950000Y-109750000D02*
X234000000Y-107700000D01*
X234000000Y-107700000D02*
X234000000Y-105160000D01*
X225491906Y-74460000D02*
X225491906Y-70991906D01*
X225000000Y-112250000D02*
X225125000Y-112375000D01*
X236125000Y-112375000D02*
X238500000Y-110000000D01*
X238500000Y-110000000D02*
X238500000Y-76000000D01*
X225000000Y-112250000D02*
X207570000Y-112250000D01*
D27*
X163000000Y-107500000D02*
X185791906Y-107500000D01*
D26*
X225491906Y-70991906D02*
X224500000Y-70000000D01*
X224500000Y-70000000D02*
X165120000Y-70000000D01*
D27*
X160500000Y-101000000D02*
X160500000Y-105000000D01*
D26*
X231140000Y-128397000D02*
X231140000Y-118390000D01*
X235960000Y-74460000D02*
X225491906Y-74460000D01*
D27*
X185791906Y-107500000D02*
X191411906Y-113120000D01*
X161000000Y-100500000D02*
X160500000Y-101000000D01*
D26*
X163560000Y-71560000D02*
X163560000Y-80000000D01*
X236000000Y-74500000D02*
X235960000Y-74460000D01*
X237000000Y-74500000D02*
X236000000Y-74500000D01*
X231140000Y-118390000D02*
X225000000Y-112250000D01*
D27*
X163750000Y-100500000D02*
X161000000Y-100500000D01*
D26*
X207570000Y-112250000D02*
X206380000Y-113440000D01*
X165120000Y-70000000D02*
X163560000Y-71560000D01*
X225125000Y-112375000D02*
X236125000Y-112375000D01*
D27*
X160500000Y-105000000D02*
X163000000Y-107500000D01*
D26*
X238500000Y-76000000D02*
X237000000Y-74500000D01*
M02*
