G04 #@! TF.GenerationSoftware,KiCad,Pcbnew,8.99.0-unknown-5c22162d85~178~ubuntu22.04.1*
G04 #@! TF.CreationDate,2024-07-16T15:39:20+01:00*
G04 #@! TF.ProjectId,Lego9767,4c65676f-3937-4363-972e-6b696361645f,1.0.1*
G04 #@! TF.SameCoordinates,Original*
G04 #@! TF.FileFunction,Other,User*
%FSLAX46Y46*%
G04 Gerber Fmt 4.6, Leading zero omitted, Abs format (unit mm)*
G04 Created by KiCad (PCBNEW 8.99.0-unknown-5c22162d85~178~ubuntu22.04.1) date 2024-07-16 15:39:20*
%MOMM*%
%LPD*%
G01*
G04 APERTURE LIST*
%ADD10C,0.050000*%
G04 APERTURE END LIST*
D10*
X203641906Y-73450000D02*
X203641906Y-75550000D01*
X203641906Y-75550000D02*
X210621906Y-75550000D01*
X210621906Y-73450000D02*
X203641906Y-73450000D01*
X210621906Y-75550000D02*
X210621906Y-73450000D01*
X162040000Y-78480000D02*
X213340000Y-78480000D01*
X162040000Y-96760000D02*
X162040000Y-78480000D01*
X213340000Y-78480000D02*
X213340000Y-96760000D01*
X213340000Y-96760000D02*
X162040000Y-96760000D01*
X222761906Y-80550000D02*
X222761906Y-73450000D01*
X222761906Y-80550000D02*
X227501906Y-80550000D01*
X227501906Y-73450000D02*
X222761906Y-73450000D01*
X227501906Y-73450000D02*
X227501906Y-80550000D01*
X198825000Y-114275000D02*
X198825000Y-104665000D01*
X219015000Y-104665000D02*
X198825000Y-104665000D01*
X219015000Y-114275000D02*
X198825000Y-114275000D01*
X219015000Y-114275000D02*
X219015000Y-104665000D01*
X230320000Y-79240000D02*
X230320000Y-113300000D01*
X230320000Y-113300000D02*
X240220000Y-113300000D01*
X240220000Y-79240000D02*
X230320000Y-79240000D01*
X240220000Y-113300000D02*
X240220000Y-79240000D01*
X223950000Y-108700000D02*
X223950000Y-113300000D01*
X223950000Y-113300000D02*
X226050000Y-113300000D01*
X226050000Y-108700000D02*
X223950000Y-108700000D01*
X226050000Y-113300000D02*
X226050000Y-108700000D01*
X162700000Y-99450000D02*
X162700000Y-101550000D01*
X162700000Y-101550000D02*
X167300000Y-101550000D01*
X167300000Y-99450000D02*
X162700000Y-99450000D01*
X167300000Y-101550000D02*
X167300000Y-99450000D01*
M02*
