G04 #@! TF.GenerationSoftware,KiCad,Pcbnew,8.99.0-unknown-5c22162d85~178~ubuntu22.04.1*
G04 #@! TF.CreationDate,2024-07-16T15:39:20+01:00*
G04 #@! TF.ProjectId,Lego9767,4c65676f-3937-4363-972e-6b696361645f,1.0.1*
G04 #@! TF.SameCoordinates,Original*
G04 #@! TF.FileFunction,AssemblyDrawing,Top*
%FSLAX46Y46*%
G04 Gerber Fmt 4.6, Leading zero omitted, Abs format (unit mm)*
G04 Created by KiCad (PCBNEW 8.99.0-unknown-5c22162d85~178~ubuntu22.04.1) date 2024-07-16 15:39:20*
%MOMM*%
%LPD*%
G01*
G04 APERTURE LIST*
%ADD10C,0.108000*%
%ADD11C,0.150000*%
%ADD12C,0.090000*%
%ADD13C,0.100000*%
%ADD14C,0.127000*%
%ADD15C,0.200000*%
%ADD16C,0.152400*%
G04 APERTURE END LIST*
D10*
X207011906Y-74827469D02*
X206771906Y-74484612D01*
X206600477Y-74827469D02*
X206600477Y-74107469D01*
X206600477Y-74107469D02*
X206874763Y-74107469D01*
X206874763Y-74107469D02*
X206943334Y-74141755D01*
X206943334Y-74141755D02*
X206977620Y-74176041D01*
X206977620Y-74176041D02*
X207011906Y-74244612D01*
X207011906Y-74244612D02*
X207011906Y-74347469D01*
X207011906Y-74347469D02*
X206977620Y-74416041D01*
X206977620Y-74416041D02*
X206943334Y-74450326D01*
X206943334Y-74450326D02*
X206874763Y-74484612D01*
X206874763Y-74484612D02*
X206600477Y-74484612D01*
X207697620Y-74827469D02*
X207286191Y-74827469D01*
X207491906Y-74827469D02*
X207491906Y-74107469D01*
X207491906Y-74107469D02*
X207423334Y-74210326D01*
X207423334Y-74210326D02*
X207354763Y-74278898D01*
X207354763Y-74278898D02*
X207286191Y-74313184D01*
D11*
X235724819Y-98603332D02*
X234724819Y-98603332D01*
X235724819Y-98127142D02*
X234724819Y-98127142D01*
X234724819Y-98127142D02*
X234724819Y-97889047D01*
X234724819Y-97889047D02*
X234772438Y-97746190D01*
X234772438Y-97746190D02*
X234867676Y-97650952D01*
X234867676Y-97650952D02*
X234962914Y-97603333D01*
X234962914Y-97603333D02*
X235153390Y-97555714D01*
X235153390Y-97555714D02*
X235296247Y-97555714D01*
X235296247Y-97555714D02*
X235486723Y-97603333D01*
X235486723Y-97603333D02*
X235581961Y-97650952D01*
X235581961Y-97650952D02*
X235677200Y-97746190D01*
X235677200Y-97746190D02*
X235724819Y-97889047D01*
X235724819Y-97889047D02*
X235724819Y-98127142D01*
X235629580Y-96555714D02*
X235677200Y-96603333D01*
X235677200Y-96603333D02*
X235724819Y-96746190D01*
X235724819Y-96746190D02*
X235724819Y-96841428D01*
X235724819Y-96841428D02*
X235677200Y-96984285D01*
X235677200Y-96984285D02*
X235581961Y-97079523D01*
X235581961Y-97079523D02*
X235486723Y-97127142D01*
X235486723Y-97127142D02*
X235296247Y-97174761D01*
X235296247Y-97174761D02*
X235153390Y-97174761D01*
X235153390Y-97174761D02*
X234962914Y-97127142D01*
X234962914Y-97127142D02*
X234867676Y-97079523D01*
X234867676Y-97079523D02*
X234772438Y-96984285D01*
X234772438Y-96984285D02*
X234724819Y-96841428D01*
X234724819Y-96841428D02*
X234724819Y-96746190D01*
X234724819Y-96746190D02*
X234772438Y-96603333D01*
X234772438Y-96603333D02*
X234820057Y-96555714D01*
X234820057Y-95412856D02*
X234772438Y-95365237D01*
X234772438Y-95365237D02*
X234724819Y-95269999D01*
X234724819Y-95269999D02*
X234724819Y-95031904D01*
X234724819Y-95031904D02*
X234772438Y-94936666D01*
X234772438Y-94936666D02*
X234820057Y-94889047D01*
X234820057Y-94889047D02*
X234915295Y-94841428D01*
X234915295Y-94841428D02*
X235010533Y-94841428D01*
X235010533Y-94841428D02*
X235153390Y-94889047D01*
X235153390Y-94889047D02*
X235724819Y-95460475D01*
X235724819Y-95460475D02*
X235724819Y-94841428D01*
X234724819Y-94222380D02*
X234724819Y-94127142D01*
X234724819Y-94127142D02*
X234772438Y-94031904D01*
X234772438Y-94031904D02*
X234820057Y-93984285D01*
X234820057Y-93984285D02*
X234915295Y-93936666D01*
X234915295Y-93936666D02*
X235105771Y-93889047D01*
X235105771Y-93889047D02*
X235343866Y-93889047D01*
X235343866Y-93889047D02*
X235534342Y-93936666D01*
X235534342Y-93936666D02*
X235629580Y-93984285D01*
X235629580Y-93984285D02*
X235677200Y-94031904D01*
X235677200Y-94031904D02*
X235724819Y-94127142D01*
X235724819Y-94127142D02*
X235724819Y-94222380D01*
X235724819Y-94222380D02*
X235677200Y-94317618D01*
X235677200Y-94317618D02*
X235629580Y-94365237D01*
X235629580Y-94365237D02*
X235534342Y-94412856D01*
X235534342Y-94412856D02*
X235343866Y-94460475D01*
X235343866Y-94460475D02*
X235105771Y-94460475D01*
X235105771Y-94460475D02*
X234915295Y-94412856D01*
X234915295Y-94412856D02*
X234820057Y-94365237D01*
X234820057Y-94365237D02*
X234772438Y-94317618D01*
X234772438Y-94317618D02*
X234724819Y-94222380D01*
D12*
X225215748Y-111099999D02*
X225244320Y-111128571D01*
X225244320Y-111128571D02*
X225272891Y-111214285D01*
X225272891Y-111214285D02*
X225272891Y-111271428D01*
X225272891Y-111271428D02*
X225244320Y-111357142D01*
X225244320Y-111357142D02*
X225187177Y-111414285D01*
X225187177Y-111414285D02*
X225130034Y-111442856D01*
X225130034Y-111442856D02*
X225015748Y-111471428D01*
X225015748Y-111471428D02*
X224930034Y-111471428D01*
X224930034Y-111471428D02*
X224815748Y-111442856D01*
X224815748Y-111442856D02*
X224758605Y-111414285D01*
X224758605Y-111414285D02*
X224701462Y-111357142D01*
X224701462Y-111357142D02*
X224672891Y-111271428D01*
X224672891Y-111271428D02*
X224672891Y-111214285D01*
X224672891Y-111214285D02*
X224701462Y-111128571D01*
X224701462Y-111128571D02*
X224730034Y-111099999D01*
X225272891Y-110528571D02*
X225272891Y-110871428D01*
X225272891Y-110699999D02*
X224672891Y-110699999D01*
X224672891Y-110699999D02*
X224758605Y-110757142D01*
X224758605Y-110757142D02*
X224815748Y-110814285D01*
X224815748Y-110814285D02*
X224844320Y-110871428D01*
X164900000Y-100715748D02*
X164871428Y-100744320D01*
X164871428Y-100744320D02*
X164785714Y-100772891D01*
X164785714Y-100772891D02*
X164728571Y-100772891D01*
X164728571Y-100772891D02*
X164642857Y-100744320D01*
X164642857Y-100744320D02*
X164585714Y-100687177D01*
X164585714Y-100687177D02*
X164557143Y-100630034D01*
X164557143Y-100630034D02*
X164528571Y-100515748D01*
X164528571Y-100515748D02*
X164528571Y-100430034D01*
X164528571Y-100430034D02*
X164557143Y-100315748D01*
X164557143Y-100315748D02*
X164585714Y-100258605D01*
X164585714Y-100258605D02*
X164642857Y-100201462D01*
X164642857Y-100201462D02*
X164728571Y-100172891D01*
X164728571Y-100172891D02*
X164785714Y-100172891D01*
X164785714Y-100172891D02*
X164871428Y-100201462D01*
X164871428Y-100201462D02*
X164900000Y-100230034D01*
X165128571Y-100230034D02*
X165157143Y-100201462D01*
X165157143Y-100201462D02*
X165214286Y-100172891D01*
X165214286Y-100172891D02*
X165357143Y-100172891D01*
X165357143Y-100172891D02*
X165414286Y-100201462D01*
X165414286Y-100201462D02*
X165442857Y-100230034D01*
X165442857Y-100230034D02*
X165471428Y-100287177D01*
X165471428Y-100287177D02*
X165471428Y-100344320D01*
X165471428Y-100344320D02*
X165442857Y-100430034D01*
X165442857Y-100430034D02*
X165100000Y-100772891D01*
X165100000Y-100772891D02*
X165471428Y-100772891D01*
D13*
X204591906Y-74500000D02*
X205331906Y-74500000D01*
X205331906Y-73700000D02*
X205331906Y-75300000D01*
X205331906Y-75300000D02*
X208931906Y-75300000D01*
X208931906Y-73700000D02*
X205331906Y-73700000D01*
X208931906Y-75300000D02*
X208931906Y-73700000D01*
X209671906Y-74500000D02*
X208931906Y-74500000D01*
D14*
X162290000Y-78730000D02*
X213090000Y-78730000D01*
X162290000Y-96510000D02*
X162290000Y-78730000D01*
X213090000Y-78730000D02*
X213090000Y-96510000D01*
X213090000Y-96510000D02*
X162290000Y-96510000D01*
D15*
X211920000Y-78080000D02*
G75*
G02*
X211720000Y-78080000I-100000J0D01*
G01*
X211720000Y-78080000D02*
G75*
G02*
X211920000Y-78080000I100000J0D01*
G01*
D13*
X227241906Y-78740000D02*
X227241906Y-75240000D01*
X223011906Y-77000000D02*
G75*
G02*
X227245531Y-75246375I2480000J0D01*
G01*
X227245531Y-78753625D02*
G75*
G02*
X223011906Y-77000000I-1753625J1753625D01*
G01*
D14*
X199075000Y-106170000D02*
X199075000Y-112770000D01*
X218765000Y-106170000D02*
X199075000Y-106170000D01*
X218765000Y-106170000D02*
X218765000Y-112770000D01*
X218765000Y-112770000D02*
X199075000Y-112770000D01*
D15*
X216640000Y-104415000D02*
G75*
G02*
X216440000Y-104415000I-100000J0D01*
G01*
X216440000Y-104415000D02*
G75*
G02*
X216640000Y-104415000I100000J0D01*
G01*
D13*
X230820000Y-80740000D02*
X231820000Y-79740000D01*
X230820000Y-94220000D02*
X232020000Y-94220000D01*
X230820000Y-112800000D02*
X230820000Y-80740000D01*
X231820000Y-79740000D02*
X239720000Y-79740000D01*
X232020000Y-80930000D02*
X238520000Y-80930000D01*
X232020000Y-94220000D02*
X232020000Y-80930000D01*
X232020000Y-98320000D02*
X230820000Y-98320000D01*
X232020000Y-98320000D02*
X232020000Y-98320000D01*
X232020000Y-111610000D02*
X232020000Y-98320000D01*
X238520000Y-80930000D02*
X238520000Y-111610000D01*
X238520000Y-111610000D02*
X232020000Y-111610000D01*
X239720000Y-79740000D02*
X239720000Y-112800000D01*
X239720000Y-112800000D02*
X230820000Y-112800000D01*
D16*
X166519906Y-106008000D02*
X166519906Y-112612000D01*
X166519906Y-112612000D02*
X193443906Y-112612000D01*
X167993106Y-104941200D02*
X167993106Y-106008000D01*
X167993106Y-106008000D02*
X169110706Y-106008000D01*
X167993106Y-112612000D02*
X167993106Y-113678800D01*
X167993106Y-113678800D02*
X169110706Y-113678800D01*
X169110706Y-104941200D02*
X167993106Y-104941200D01*
X169110706Y-106008000D02*
X169110706Y-104941200D01*
X169110706Y-112612000D02*
X167993106Y-112612000D01*
X169110706Y-113678800D02*
X169110706Y-112612000D01*
X170533106Y-104941200D02*
X170533106Y-106008000D01*
X170533106Y-106008000D02*
X171650706Y-106008000D01*
X170533106Y-112612000D02*
X170533106Y-113678800D01*
X170533106Y-113678800D02*
X171650706Y-113678800D01*
X171650706Y-104941200D02*
X170533106Y-104941200D01*
X171650706Y-106008000D02*
X171650706Y-104941200D01*
X171650706Y-112612000D02*
X170533106Y-112612000D01*
X171650706Y-113678800D02*
X171650706Y-112612000D01*
X173073106Y-104941200D02*
X173073106Y-106008000D01*
X173073106Y-106008000D02*
X174190706Y-106008000D01*
X173073106Y-112612000D02*
X173073106Y-113678800D01*
X173073106Y-113678800D02*
X174190706Y-113678800D01*
X174190706Y-104941200D02*
X173073106Y-104941200D01*
X174190706Y-106008000D02*
X174190706Y-104941200D01*
X174190706Y-112612000D02*
X173073106Y-112612000D01*
X174190706Y-113678800D02*
X174190706Y-112612000D01*
X175613106Y-104941200D02*
X175613106Y-106008000D01*
X175613106Y-106008000D02*
X176730706Y-106008000D01*
X175613106Y-112612000D02*
X175613106Y-113678800D01*
X175613106Y-113678800D02*
X176730706Y-113678800D01*
X176730706Y-104941200D02*
X175613106Y-104941200D01*
X176730706Y-106008000D02*
X176730706Y-104941200D01*
X176730706Y-112612000D02*
X175613106Y-112612000D01*
X176730706Y-113678800D02*
X176730706Y-112612000D01*
X178153106Y-104941200D02*
X178153106Y-106008000D01*
X178153106Y-106008000D02*
X179270706Y-106008000D01*
X178153106Y-112612000D02*
X178153106Y-113678800D01*
X178153106Y-113678800D02*
X179270706Y-113678800D01*
X179270706Y-104941200D02*
X178153106Y-104941200D01*
X179270706Y-106008000D02*
X179270706Y-104941200D01*
X179270706Y-112612000D02*
X178153106Y-112612000D01*
X179270706Y-113678800D02*
X179270706Y-112612000D01*
X180693106Y-104941200D02*
X180693106Y-106008000D01*
X180693106Y-106008000D02*
X181810706Y-106008000D01*
X180693106Y-112612000D02*
X180693106Y-113678800D01*
X180693106Y-113678800D02*
X181810706Y-113678800D01*
X181810706Y-104941200D02*
X180693106Y-104941200D01*
X181810706Y-106008000D02*
X181810706Y-104941200D01*
X181810706Y-112612000D02*
X180693106Y-112612000D01*
X181810706Y-113678800D02*
X181810706Y-112612000D01*
X183233106Y-104941200D02*
X183233106Y-106008000D01*
X183233106Y-106008000D02*
X184350706Y-106008000D01*
X183233106Y-112612000D02*
X183233106Y-113678800D01*
X183233106Y-113678800D02*
X184350706Y-113678800D01*
X184350706Y-104941200D02*
X183233106Y-104941200D01*
X184350706Y-106008000D02*
X184350706Y-104941200D01*
X184350706Y-112612000D02*
X183233106Y-112612000D01*
X184350706Y-113678800D02*
X184350706Y-112612000D01*
X185773106Y-104941200D02*
X185773106Y-106008000D01*
X185773106Y-106008000D02*
X186890706Y-106008000D01*
X185773106Y-112612000D02*
X185773106Y-113678800D01*
X185773106Y-113678800D02*
X186890706Y-113678800D01*
X186890706Y-104941200D02*
X185773106Y-104941200D01*
X186890706Y-106008000D02*
X186890706Y-104941200D01*
X186890706Y-112612000D02*
X185773106Y-112612000D01*
X186890706Y-113678800D02*
X186890706Y-112612000D01*
X188313106Y-104941200D02*
X188313106Y-106008000D01*
X188313106Y-106008000D02*
X189430706Y-106008000D01*
X188313106Y-112612000D02*
X188313106Y-113678800D01*
X188313106Y-113678800D02*
X189430706Y-113678800D01*
X189430706Y-104941200D02*
X188313106Y-104941200D01*
X189430706Y-106008000D02*
X189430706Y-104941200D01*
X189430706Y-112612000D02*
X188313106Y-112612000D01*
X189430706Y-113678800D02*
X189430706Y-112612000D01*
X190853106Y-104941200D02*
X190853106Y-106008000D01*
X190853106Y-106008000D02*
X191970706Y-106008000D01*
X190853106Y-112612000D02*
X190853106Y-113678800D01*
X190853106Y-113678800D02*
X191970706Y-113678800D01*
X191970706Y-104941200D02*
X190853106Y-104941200D01*
X191970706Y-106008000D02*
X191970706Y-104941200D01*
X191970706Y-112612000D02*
X190853106Y-112612000D01*
X191970706Y-113678800D02*
X191970706Y-112612000D01*
X193443906Y-106008000D02*
X166519906Y-106008000D01*
X193443906Y-109005200D02*
X193443906Y-106008000D01*
X193443906Y-109614800D02*
X193443906Y-109005200D01*
X193443906Y-112612000D02*
X193443906Y-109614800D01*
D13*
X193443906Y-109614800D02*
G75*
G02*
X193443906Y-109005200I0J304800D01*
G01*
X224200000Y-109500000D02*
X224200000Y-112500000D01*
X224200000Y-112500000D02*
X225800000Y-112500000D01*
X225800000Y-109500000D02*
X224200000Y-109500000D01*
X225800000Y-112500000D02*
X225800000Y-109500000D01*
X163500000Y-99700000D02*
X163500000Y-101300000D01*
X163500000Y-101300000D02*
X166500000Y-101300000D01*
X166500000Y-99700000D02*
X163500000Y-99700000D01*
X166500000Y-101300000D02*
X166500000Y-99700000D01*
M02*
