M48
; DRILL file {KiCad 8.99.0-unknown-5c22162d85~178~ubuntu22.04.1} date 2024-07-16T15:39:16+0100
; FORMAT={-:-/ absolute / inch / decimal}
; #@! TF.CreationDate,2024-07-16T15:39:16+01:00
; #@! TF.GenerationSoftware,Kicad,Pcbnew,8.99.0-unknown-5c22162d85~178~ubuntu22.04.1
; #@! TF.FileFunction,Plated,1,2,PTH
FMAT,2
INCH
; #@! TA.AperFunction,Plated,PTH,ComponentDrill
T1C0.0276
; #@! TA.AperFunction,Plated,PTH,ComponentDrill
T2C0.0303
; #@! TA.AperFunction,Plated,PTH,ComponentDrill
T3C0.0315
; #@! TA.AperFunction,Plated,PTH,ComponentDrill
T4C0.0394
; #@! TA.AperFunction,Plated,PTH,ComponentDrill
T5C0.0413
; #@! TA.AperFunction,Plated,PTH,ComponentDrill
T6C0.0440
%
G90
G05
T1
X8.0548Y-2.9331
X8.2548Y-2.9331
T2
X7.9252Y-4.1535
X7.9252Y-4.4661
X8.0252Y-4.1535
X8.0252Y-4.4661
X8.1252Y-4.1535
X8.1252Y-4.4661
X8.2252Y-4.1535
X8.2252Y-4.4661
X8.3252Y-4.1535
X8.3252Y-4.4661
X8.4252Y-4.1535
X8.4252Y-4.4661
X8.5252Y-4.1535
X8.5252Y-4.4661
T3
X6.4469Y-3.9567
X6.5453Y-3.9567
X8.8583Y-4.3209
X8.8583Y-4.4193
X8.8776Y-2.9315
X8.8776Y-3.0315
X8.8776Y-3.1315
T4
X9.2126Y-3.3402
X9.2126Y-3.4402
X9.2126Y-3.5402
X9.2126Y-3.6402
X9.2126Y-3.7402
X9.2126Y-3.8402
X9.2126Y-3.9402
X9.2126Y-4.0402
X9.2126Y-4.1402
X9.2126Y-4.2402
X9.3126Y-3.3402
X9.3126Y-3.4402
X9.3126Y-3.5402
X9.3126Y-3.6402
X9.3126Y-3.7402
X9.3126Y-3.8402
X9.3126Y-3.9402
X9.3126Y-4.0402
X9.3126Y-4.1402
X9.3126Y-4.2402
T5
X6.4394Y-3.1496
X6.4394Y-3.7496
X6.5394Y-3.1496
X6.5394Y-3.7496
X6.6394Y-3.1496
X6.6394Y-3.7496
X6.7394Y-3.1496
X6.7394Y-3.7496
X6.8394Y-3.1496
X6.8394Y-3.7496
X6.9394Y-3.1496
X6.9394Y-3.7496
X7.0394Y-3.1496
X7.0394Y-3.7496
X7.1394Y-3.1496
X7.1394Y-3.7496
X7.2394Y-3.1496
X7.2394Y-3.7496
X7.3394Y-3.1496
X7.3394Y-3.7496
X7.4394Y-3.1496
X7.4394Y-3.7496
X7.5394Y-3.1496
X7.5394Y-3.7496
X7.6394Y-3.1496
X7.6394Y-3.7496
X7.7394Y-3.1496
X7.7394Y-3.7496
X7.8394Y-3.1496
X7.8394Y-3.7496
X7.9394Y-3.1496
X7.9394Y-3.7496
X8.0394Y-3.1496
X8.0394Y-3.7496
X8.1394Y-3.1496
X8.1394Y-3.7496
X8.2394Y-3.1496
X8.2394Y-3.7496
X8.3394Y-3.1496
X8.3394Y-3.7496
T6
X6.6359Y-4.1535
X6.6359Y-4.4535
X6.7359Y-4.1535
X6.7359Y-4.4535
X6.8359Y-4.1535
X6.8359Y-4.4535
X6.9359Y-4.1535
X6.9359Y-4.4535
X7.0359Y-4.1535
X7.0359Y-4.4535
X7.1359Y-4.1535
X7.1359Y-4.4535
X7.2359Y-4.1535
X7.2359Y-4.4535
X7.3359Y-4.1535
X7.3359Y-4.4535
X7.4359Y-4.1535
X7.4359Y-4.4535
X7.5359Y-4.1535
X7.5359Y-4.4535
M30
